<svg width="834"
       height="168"
       viewBox="0 0 834 168"
       fill="none"
       xmlns="http://www.w3.org/2000/svg">
    <path d="M298.247 168.275V112.969H302.97V100.06H313.716V93.6017L322.455 80.4604H330.494V168.275H298.247Z"
          fill="#EBF4FF" />
    <path d="M385.543 168.275V90.3139H375.755V83.8195H367.537V79.3315H357.158V168.275H385.543Z"
          fill="#EBF4FF" />
    <path d="M228.993 168.276V82.8797H233.008L236.432 90.1983H241.514L245.475 81.7421H251.346L255.621 72.605H264.906V168.276H228.993Z"
          fill="#EBF4FF" />
    <path d="M305.981 55.6917L298.381 52.4848L295.531 47.1549L283.171 38.6807L270.839 47.1907L267.989 52.5117L260.397 55.7276H263.463L263.561 168.275H303.355L303.256 55.6917H305.981Z"
          fill="#EBF4FF" />
    <path d="M267.721 113.049L267.725 116.686L273.9 116.681L273.897 113.044L267.721 113.049Z"
          fill="#EBF4FF" />
    <path d="M267.724 120.807L267.728 124.444L273.903 124.438L273.9 120.802L267.724 120.807Z"
          fill="#EBF4FF" />
    <path d="M267.728 128.557L267.731 132.194L273.907 132.188L273.903 128.551L267.728 128.557Z"
          fill="#EBF4FF" />
    <path d="M267.708 105.299L267.711 108.936L273.886 108.931L273.883 105.294L267.708 105.299Z"
          fill="#EBF4FF" />
    <path d="M267.705 97.5491L267.708 101.186L273.883 101.181L273.88 97.5437L267.705 97.5491Z"
          fill="#EBF4FF" />
    <path d="M275.956 113.042L275.959 116.679L282.134 116.673L282.131 113.036L275.956 113.042Z"
          fill="#EBF4FF" />
    <path d="M275.963 128.55L275.966 132.187L282.141 132.181L282.138 128.544L275.963 128.55Z"
          fill="#EBF4FF" />
    <path d="M275.943 105.29L275.946 108.927L282.121 108.922L282.118 105.285L275.943 105.29Z"
          fill="#EBF4FF" />
    <path d="M275.94 97.5418L275.943 101.179L282.119 101.173L282.115 97.5364L275.94 97.5418Z"
          fill="#EBF4FF" />
    <path d="M284.19 113.033L284.193 116.67L290.369 116.664L290.365 113.028L284.19 113.033Z"
          fill="#EBF4FF" />
    <path d="M284.194 120.792L284.197 124.429L290.372 124.424L290.369 120.787L284.194 120.792Z"
          fill="#EBF4FF" />
    <path d="M284.207 128.542L284.21 132.179L290.385 132.174L290.382 128.537L284.207 128.542Z"
          fill="#EBF4FF" />
    <path d="M284.175 97.5345L284.178 101.171L290.353 101.166L290.35 97.529L284.175 97.5345Z"
          fill="#EBF4FF" />
    <path d="M292.425 113.026L292.429 116.663L298.604 116.657L298.601 113.02L292.425 113.026Z"
          fill="#EBF4FF" />
    <path d="M292.429 120.785L292.433 124.422L298.608 124.416L298.605 120.78L292.429 120.785Z"
          fill="#EBF4FF" />
    <path d="M292.442 128.533L292.445 132.17L298.621 132.165L298.617 128.528L292.442 128.533Z"
          fill="#EBF4FF" />
    <path d="M292.422 105.277L292.425 108.914L298.6 108.909L298.597 105.272L292.422 105.277Z"
          fill="#EBF4FF" />
    <path d="M267.744 144.792L267.747 148.429L273.922 148.423L273.919 144.786L267.744 144.792Z"
          fill="#EBF4FF" />
    <path d="M267.748 152.551L267.751 156.188L273.926 156.183L273.923 152.546L267.748 152.551Z"
          fill="#EBF4FF" />
    <path d="M267.741 137.042L267.744 140.679L273.919 140.673L273.916 137.036L267.741 137.042Z"
          fill="#EBF4FF" />
    <path d="M275.98 144.783L275.983 148.42L282.159 148.414L282.155 144.778L275.98 144.783Z"
          fill="#EBF4FF" />
    <path d="M275.992 152.542L275.995 156.179L282.17 156.174L282.167 152.537L275.992 152.542Z"
          fill="#EBF4FF" />
    <path d="M275.975 137.034L275.979 140.671L282.154 140.666L282.15 137.029L275.975 137.034Z"
          fill="#EBF4FF" />
    <path d="M284.215 144.776L284.218 148.413L290.393 148.407L290.39 144.77L284.215 144.776Z"
          fill="#EBF4FF" />
    <path d="M292.459 144.77L292.462 148.407L298.637 148.401L298.634 144.764L292.459 144.77Z"
          fill="#EBF4FF" />
    <path d="M292.462 152.528L292.465 156.165L298.64 156.159L298.637 152.522L292.462 152.528Z"
          fill="#EBF4FF" />
    <path d="M292.446 137.02L292.449 140.657L298.624 140.651L298.621 137.014L292.446 137.02Z"
          fill="#EBF4FF" />
    <path d="M292.409 97.5272L292.412 101.164L298.587 101.159L298.584 97.5217L292.409 97.5272Z"
          fill="#EBF4FF" />
    <path d="M267.68 73.2366L267.684 76.8735L273.859 76.8681L273.856 73.2312L267.68 73.2366Z"
          fill="#EBF4FF" />
    <path d="M267.684 80.9944L267.688 84.6313L273.863 84.6259L273.859 80.989L267.684 80.9944Z"
          fill="#EBF4FF" />
    <path d="M267.697 88.7435L267.7 92.3804L273.875 92.3749L273.872 88.738L267.697 88.7435Z"
          fill="#EBF4FF" />
    <path d="M267.677 65.4866L267.681 69.1235L273.856 69.1181L273.853 65.4812L267.677 65.4866Z"
          fill="#EBF4FF" />
    <path d="M267.664 57.7366L267.667 61.3735L273.842 61.3681L273.839 57.7312L267.664 57.7366Z"
          fill="#EBF4FF" />
    <path d="M275.916 73.2293L275.919 76.8662L282.094 76.8608L282.091 73.2239L275.916 73.2293Z"
          fill="#EBF4FF" />
    <path d="M275.928 80.9876L275.932 84.6245L282.107 84.6191L282.104 80.9822L275.928 80.9876Z"
          fill="#EBF4FF" />
    <path d="M275.912 65.4783L275.915 69.1152L282.09 69.1098L282.087 65.4729L275.912 65.4783Z"
          fill="#EBF4FF" />
    <path d="M284.163 80.9803L284.166 84.6172L290.341 84.6117L290.338 80.9748L284.163 80.9803Z"
          fill="#EBF4FF" />
    <path d="M284.167 88.7288L284.17 92.3657L290.345 92.3603L290.342 88.7234L284.167 88.7288Z"
          fill="#EBF4FF" />
    <path d="M284.147 65.471L284.15 69.1079L290.326 69.1025L290.322 65.4655L284.147 65.471Z"
          fill="#EBF4FF" />
    <path d="M292.394 73.2137L292.397 76.8506L298.573 76.8451L298.569 73.2082L292.394 73.2137Z"
          fill="#EBF4FF" />
    <path d="M292.398 80.9729L292.401 84.6099L298.577 84.6044L298.573 80.9675L292.398 80.9729Z"
          fill="#EBF4FF" />
    <path d="M292.401 88.7215L292.404 92.3584L298.579 92.353L298.576 88.716L292.401 88.7215Z"
          fill="#EBF4FF" />
    <path d="M292.382 65.4647L292.385 69.1016L298.56 69.0961L298.557 65.4592L292.382 65.4647Z"
          fill="#EBF4FF" />
    <path d="M292.378 57.7146L292.381 61.3516L298.556 61.3461L298.553 57.7092L292.378 57.7146Z"
          fill="#EBF4FF" />
    <path d="M186.537 67.6775V168.275H229.898V67.6775V54.1421L186.537 67.6775Z"
          fill="#EBF4FF" />
    <path d="M416.999 100.275H385.021L384.161 101.019V103.223L383.928 105.417H382.314V168.275H416.399L416.999 100.275Z"
          fill="#EBF4FF" />
    <path d="M376.024 113.382V114.815H395.276V113.382H376.024Z"
          fill="#EBF4FF" />
    <path d="M376.026 115.494V116.928H395.278V115.494H376.026Z"
          fill="#EBF4FF" />
    <path d="M376.027 117.607V119.04H395.279V117.607H376.027Z"
          fill="#EBF4FF" />
    <path d="M382.856 121.457V122.89H402.108V121.457H382.856Z"
          fill="#EBF4FF" />
    <path d="M382.85 123.57V125.003H402.101V123.57H382.85Z"
          fill="#EBF4FF" />
    <path d="M382.851 125.682V127.116H402.102V125.682H382.851Z"
          fill="#EBF4FF" />
    <path d="M389.685 128.715V130.148H408.936V128.715H389.685Z"
          fill="#EBF4FF" />
    <path d="M389.686 130.827V132.26H408.937V130.827H389.686Z"
          fill="#EBF4FF" />
    <path d="M389.679 132.939V134.373H408.93V132.939H389.679Z"
          fill="#EBF4FF" />
    <path d="M396.27 95.4106H394.729V100.552H396.27V95.4106Z"
          fill="#EBF4FF" />
    <path d="M388.445 97.982L390.605 88.3701H404.094L401.943 97.982H388.445Z"
          fill="#EBF4FF" />
    <path d="M395.07 89.9644H394.649H391.843L391.512 91.4693H394.317H394.738H396.19L396.531 89.9644H395.07Z"
          fill="#EBF4FF" />
    <path d="M400.564 89.9644H400.259H397.454L397.122 91.4693H399.918H400.223H401.8L402.141 89.9644H400.564Z"
          fill="#EBF4FF" />
    <path d="M394.881 92.4272H394.101H391.296L390.955 93.9232H393.76H394.549H395.643L395.974 92.4272H394.881Z"
          fill="#EBF4FF" />
    <path d="M400.573 92.4272H399.712H396.907L396.566 93.9232H399.372H400.241H401.254L401.585 92.4272H400.573Z"
          fill="#EBF4FF" />
    <path d="M394.236 94.8823H393.546H390.741L390.409 96.3783H393.214H393.896H395.088L395.428 94.8823H394.236Z"
          fill="#EBF4FF" />
    <path d="M399.766 94.8823H399.156H396.351L396.02 96.3783H398.825H399.434H400.698L401.039 94.8823H399.766Z"
          fill="#EBF4FF" />
    <path d="M327.331 75.3188H325.789V80.4607H327.331V75.3188Z"
          fill="#EBF4FF" />
    <path d="M319.506 77.8897L321.666 68.2778H335.154L333.003 77.8897H319.506Z"
          fill="#EBF4FF" />
    <path d="M326.129 69.8804H325.708H322.903L322.571 71.3763H325.368H325.798H327.25L327.59 69.8804H326.129Z"
          fill="#EBF4FF" />
    <path d="M331.614 69.8804H331.318H328.512L328.172 71.3763H330.977H331.282H332.859L333.191 69.8804H331.614Z"
          fill="#EBF4FF" />
    <path d="M325.94 72.3354H325.161H322.355L322.015 73.8314H324.82H325.609H326.702L327.034 72.3354H325.94Z"
          fill="#EBF4FF" />
    <path d="M331.633 72.3354H330.764H327.959L327.627 73.8314H330.432H331.302H332.314L332.646 72.3354H331.633Z"
          fill="#EBF4FF" />
    <path d="M325.287 74.7905H324.606H321.8L321.469 76.2955H324.274H324.955H326.147L326.488 74.7905H325.287Z"
          fill="#EBF4FF" />
    <path d="M330.825 74.7905H330.216H327.411L327.079 76.2955H329.875H330.494H331.758L332.098 74.7905H330.825Z"
          fill="#EBF4FF" />
    <path d="M156.702 87.3838H155.16V92.5256H156.702V87.3838Z"
          fill="#EBF4FF" />
    <path d="M148.877 89.9551L151.037 80.3433H164.526L162.375 89.9551H148.877Z"
          fill="#EBF4FF" />
    <path d="M155.501 81.9375H155.08H152.275L151.943 83.4335H154.749H155.17H156.622L156.962 81.9375H155.501Z"
          fill="#EBF4FF" />
    <path d="M160.995 81.9375H160.691H157.885L157.554 83.4335H160.35H160.655H162.232L162.573 81.9375H160.995Z"
          fill="#EBF4FF" />
    <path d="M155.312 84.3916H154.533H151.727L151.387 85.8965H154.192H154.981H156.074L156.406 84.3916H155.312Z"
          fill="#EBF4FF" />
    <path d="M161.004 84.3916H160.144H157.339L156.998 85.8965H159.803H160.673H161.685L162.017 84.3916H161.004Z"
          fill="#EBF4FF" />
    <path d="M154.668 86.8555H153.978H151.172L150.841 88.3514H153.646H154.327H155.519L155.86 86.8555H154.668Z"
          fill="#EBF4FF" />
    <path d="M160.198 86.8555H159.588H156.783L156.451 88.3514H159.256H159.866H161.13L161.47 86.8555H160.198Z"
          fill="#EBF4FF" />
    <path d="M92.6461 89.0059H91.6871H90.7371L88.8818 150.394H91.6871H94.5013L92.6461 89.0059Z"
          fill="#EBF4FF" />
    <g class="rotate-1">
      <path d="M90.5127 87.4656C91.2208 88.1196 92.3232 88.0748 92.9774 87.3671C93.6317 86.6594 93.5869 85.5576 92.8789 84.9037C92.1708 84.2497 91.0684 84.2945 90.4142 85.0022C89.7599 85.7099 89.8047 86.8207 90.5127 87.4656ZM92.4218 85.3964C92.8609 85.7995 92.8878 86.4803 92.4845 86.9192C92.0812 87.3581 91.4 87.385 90.9609 86.9819C90.5217 86.5788 90.4948 85.898 90.8981 85.4591C91.3015 85.0201 91.9826 84.9932 92.4218 85.3964Z"
            fill="#EBF4FF" />
      <path d="M75.6348 62.6069L85.8341 81.2663L89.2041 84.312L90.0376 83.7476L90.8711 83.1833L89.2758 78.9283L75.6348 62.6069Z"
            fill="#EBF4FF" />
      <path d="M79.292 111.875L90.3697 93.7173L91.3197 89.2742L90.4145 88.8442L89.5093 88.4053L86.6234 91.9168L79.292 111.875Z"
            fill="#EBF4FF" />
      <path d="M120.16 84.0705L98.8924 83.5688L94.5635 84.9663L94.6441 85.9696L94.7158 86.9729L99.1971 87.7164L120.16 84.0705Z"
            fill="#EBF4FF" />
    </g>
    <path d="M359.506 39.6831H358.296H357.086L356.36 92.4363H359.918H363.477L359.506 39.6831Z"
          fill="#EBF4FF" />
    <g class="rotate-2">
      <path d="M355.992 36.2622C356.01 37.4804 357.013 38.4569 358.241 38.43C359.469 38.4031 360.437 37.4088 360.41 36.1815C360.392 34.9633 359.389 33.9869 358.161 34.0137C356.933 34.0406 355.965 35.0439 355.992 36.2622ZM359.568 36.1995C359.577 36.9519 358.976 37.579 358.223 37.5879C357.471 37.5969 356.843 36.9967 356.834 36.2442C356.825 35.4918 357.426 34.8647 358.179 34.8558C358.932 34.8468 359.55 35.447 359.568 36.1995Z"
            fill="#EBF4FF" />
      <path d="M365.797 0.887207L357.587 26.5516L357.748 32.3116L358.994 32.5803L360.24 32.8401L362.74 27.6624L365.797 0.887207Z"
            fill="#EBF4FF" />
      <path d="M323.78 47.3251L350.13 41.601L355.042 38.5912L354.647 37.3729L354.253 36.1636L348.517 36.5846L323.78 47.3251Z"
            fill="#EBF4FF" />
      <path d="M385.038 60.4759L366.898 40.5356L361.834 37.7944L360.974 38.735L360.122 39.6846L363.358 44.4412L385.038 60.4759Z"
            fill="#EBF4FF" />
    </g>

    <path d="M323.835 146.086C323.647 145.826 323.396 145.62 323.127 145.477C323.763 144.769 323.835 143.685 323.252 142.888C323.136 142.727 322.992 142.583 322.84 142.467C323.306 141.768 323.315 140.819 322.786 140.102C322.114 139.188 320.832 138.982 319.909 139.645C319.497 139.43 319.013 139.359 318.556 139.457C318.681 138.803 318.493 138.104 317.991 137.594C317.185 136.788 315.876 136.788 315.069 137.594C315.043 137.621 315.025 137.639 315.007 137.666C314.908 137.486 314.792 137.316 314.63 137.155C313.824 136.349 312.515 136.349 311.709 137.155C311.655 137.209 311.61 137.262 311.556 137.325C310.839 137.092 310.024 137.253 309.45 137.827C309.396 137.881 309.351 137.934 309.307 137.988C308.93 138.069 308.563 138.257 308.267 138.552C307.586 139.233 307.478 140.254 307.944 141.052C307.622 141.661 307.622 142.404 307.953 143.013C307.72 143.112 307.505 143.255 307.317 143.443C306.51 144.25 306.51 145.557 307.317 146.364C307.765 146.812 308.357 147.009 308.939 146.964C308.939 147 308.939 147.027 308.948 147.062C308.088 147.752 307.908 148.997 308.572 149.893C308.894 150.332 309.36 150.61 309.853 150.699C309.791 151.201 309.916 151.721 310.239 152.159C310.445 152.437 310.696 152.643 310.983 152.787C311.619 153.557 312.39 154.327 312.811 155.116C313.627 156.656 314.2 158.448 314.469 160.329C314.478 160.401 314.487 160.472 314.496 160.544L314.173 167.415H316.154L315.831 160.661C316.037 159.801 316.36 158.985 316.737 158.269C317.624 156.576 318.807 155.241 319.784 153.655C320.286 152.84 320.734 151.918 321.047 150.932C321.298 150.87 321.549 150.753 321.773 150.592C322.204 150.278 322.482 149.821 322.58 149.338C322.867 149.284 323.136 149.159 323.387 148.979C324.31 148.299 324.516 147.009 323.835 146.086ZM312.605 152.876C312.685 152.849 312.775 152.813 312.856 152.769C313.25 152.984 313.698 153.055 314.146 152.993C314.173 153.799 314.2 154.605 314.218 155.411C313.815 154.524 313.25 153.62 312.605 152.876ZM317.445 155.581C316.934 156.388 316.091 157.23 315.491 156.558C315.204 156.235 315.114 155.662 315.114 155.142C315.123 154.22 315.347 153.333 315.518 152.437C315.518 152.437 315.518 152.437 315.518 152.428C316.226 153.028 317.283 153.082 318.063 152.509C318.081 152.491 318.108 152.473 318.126 152.455C318.457 152.589 318.825 152.643 319.183 152.598C318.628 153.629 318.045 154.614 317.445 155.581Z"
          fill="#EBF4FF" />
    <path d="M258.578 143.981C258.165 142.834 257.045 142.933 257.045 142.933C257.045 142.933 257.395 142.664 257.592 142.386C257.95 141.867 257.959 140.711 257.395 140.219C256.821 139.735 255.88 139.869 255.88 139.869C255.88 139.869 256.911 139.081 256.749 137.889C256.615 136.868 256.364 136.107 255.387 135.614C254.509 135.166 252.053 135.005 250.691 135.784C250.449 135.928 250.251 136.098 250.09 136.277C250.108 135.641 249.579 134.7 248.871 134.557C248.136 134.405 247.383 134.978 247.383 134.978C247.383 134.978 247.903 133.796 247.195 132.828C246.586 131.995 246.003 131.449 244.91 131.485C243.924 131.511 241.692 132.551 240.868 133.885C240.5 134.494 240.482 135.113 240.572 135.605C239.577 134.718 237.435 134.27 236.781 134.405C236.082 134.548 234.065 135.417 233.097 137.173C232.129 138.929 233.671 140.577 233.671 140.577C233.671 140.577 232.739 141.437 232.918 142.279C233.097 143.121 233.895 143.649 233.608 143.605C233.33 143.56 232.21 144.742 231.968 145.154C231.726 145.566 231.376 146.462 231.52 147.161C231.663 147.86 232.049 148.603 233.097 149.006C234.235 149.436 234.89 148.523 234.89 148.523C234.89 148.523 234.863 148.961 234.952 149.293C235.114 149.911 235.983 150.663 236.727 150.547C237.471 150.431 237.973 149.624 237.973 149.624C237.973 149.624 237.901 150.914 238.914 151.568C239.478 151.927 239.98 152.186 240.536 152.204C240.554 152.249 240.581 152.294 240.59 152.339C240.93 153.315 241.567 153.924 241.863 154.954C242.158 155.993 242.786 158.914 242.4 160.257C242.006 161.601 241.961 165.435 240.249 166.528C238.537 167.621 241.325 167.074 242.06 167.012C242.795 166.949 242.696 166.528 243.377 166.582C244.058 166.635 243.718 166.716 244.65 167.2C245.582 167.683 246.263 166.77 246.46 166.77C246.657 166.77 247.832 167.003 248.414 167.343C248.997 167.683 248.217 166.528 248.217 166.528C248.217 166.528 246.362 164.217 246.165 162.631C245.967 161.046 245.77 159.156 246.165 157.695C246.559 156.235 246.846 154.65 247.921 153.064C248.235 152.598 248.62 152.159 249.024 151.747C249.221 151.729 249.409 151.712 249.606 151.667C251.569 151.264 251.811 149.015 251.811 149.015C251.811 149.015 253.075 149.167 253.595 148.478C254.114 147.797 253.998 146.847 254.15 147.089C254.303 147.331 255.925 147.412 256.391 147.331C256.857 147.25 257.771 146.928 258.201 146.373C258.64 145.817 258.954 145.038 258.578 143.981ZM243.888 152.643C243.565 153.127 243.368 153.252 242.589 152.58C242.293 152.321 242.087 152.07 241.907 151.801C242.544 151.389 243.359 150.565 243.906 149.66C243.924 149.66 243.951 149.66 243.978 149.66C244.067 150.61 244.157 152.249 243.888 152.643ZM246.738 153.369C246.057 153.673 245.179 153.369 245.08 152.518C245.017 152.007 245.017 151.38 245.035 150.61C245.053 150.628 245.08 150.655 245.098 150.663C245.519 150.995 246.756 151.631 248.181 151.738C247.608 152.392 247.222 153.154 246.738 153.369Z"
          fill="#EBF4FF" />
    <path d="M123.477 117.259L108.25 98.6538L93.0225 117.259V144.348V168.275H108.25H123.477V144.348V117.259Z"
          fill="#EBF4FF" />
    <path d="M0 168.274H60.6137V130.866H39.3456V88.0384H39.247V86.9186H30.4368L19.7445 77.1187L9.05217 86.9186H0.0448127V88.0384H0V118.244"
          fill="#EBF4FF" />
    <path d="M96.7021 118.251V119.523H100.314V118.251H96.7021Z"
          fill="#EBF4FF" />
    <path d="M96.7012 120.126V121.398H100.313V120.126H96.7012Z"
          fill="#EBF4FF" />
    <path d="M96.708 121.999V123.271H100.32V121.999H96.708Z"
          fill="#EBF4FF" />
    <path d="M103.197 118.248V119.52H106.809V118.248H103.197Z"
          fill="#EBF4FF" />
    <path d="M103.194 120.122V121.394H106.806V120.122H103.194Z"
          fill="#EBF4FF" />
    <path d="M103.202 121.996V123.268H106.814V121.996H103.202Z"
          fill="#EBF4FF" />
    <path d="M109.69 118.253V119.525H113.302V118.253H109.69Z"
          fill="#EBF4FF" />
    <path d="M109.688 120.126V121.398H113.3V120.126H109.688Z"
          fill="#EBF4FF" />
    <path d="M109.696 122.001V123.273H113.308V122.001H109.696Z"
          fill="#EBF4FF" />
    <path d="M116.186 118.25V119.522H119.797V118.25H116.186Z"
          fill="#EBF4FF" />
    <path d="M116.184 120.123V121.395H119.795V120.123H116.184Z"
          fill="#EBF4FF" />
    <path d="M116.19 121.998V123.27H119.802V121.998H116.19Z"
          fill="#EBF4FF" />
    <path d="M96.7061 125.736V127.008H100.318V125.736H96.7061Z"
          fill="#EBF4FF" />
    <path d="M96.7051 127.61V128.882H100.317V127.61H96.7051Z"
          fill="#EBF4FF" />
    <path d="M96.7031 129.483V130.755H100.315V129.483H96.7031Z"
          fill="#EBF4FF" />
    <path d="M103.2 125.732V127.004H106.812V125.732H103.2Z"
          fill="#EBF4FF" />
    <path d="M103.199 127.606V128.878H106.811V127.606H103.199Z"
          fill="#EBF4FF" />
    <path d="M103.196 129.48V130.752H106.808V129.48H103.196Z"
          fill="#EBF4FF" />
    <path d="M109.694 125.738V127.01H113.306V125.738H109.694Z"
          fill="#EBF4FF" />
    <path d="M109.692 127.611V128.883H113.304V127.611H109.692Z"
          fill="#EBF4FF" />
    <path d="M109.691 129.485V130.757H113.303V129.485H109.691Z"
          fill="#EBF4FF" />
    <path d="M116.188 125.735V127.007H119.8V125.735H116.188Z"
          fill="#EBF4FF" />
    <path d="M116.188 127.608V128.88H119.799V127.608H116.188Z"
          fill="#EBF4FF" />
    <path d="M116.186 129.481V130.753H119.797V129.481H116.186Z"
          fill="#EBF4FF" />
    <path d="M85.4764 122.491L66.2338 105.507L46.9912 122.491V147.206V168.275H66.2338H85.4764V147.206V122.491Z"
          fill="#EBF4FF" />
    <path d="M63.7686 125.545H58.5703V133.393H63.7686V125.545Z"
          fill="#EBF4FF" />
    <path d="M73.9053 125.545H68.707V133.393H73.9053V125.545Z"
          fill="#EBF4FF" />
    <path d="M63.7686 138.015H58.5703V145.862H63.7686V138.015Z"
          fill="#EBF4FF" />
    <path d="M73.9053 138.015H68.707V145.862H73.9053V138.015Z"
          fill="#EBF4FF" />
    <path d="M63.7686 150.484H58.5703V158.332H63.7686V150.484Z"
          fill="#EBF4FF" />
    <path d="M73.9053 150.484H68.707V158.332H73.9053V150.484Z"
          fill="#EBF4FF" />
    <path d="M109.468 168.274H85.3682V127.829L109.468 138.623V168.274Z"
          fill="#EBF4FF" />
    <path d="M187.182 100.544H183.741L180.801 106.367H179.197L175.809 99.6391H171.408L167.752 92.2847H144.135L136.383 103.867V109.591H126.846V121.04H122.67V168.275H187.182V100.544Z"
          fill="#EBF4FF" />
    <path d="M384.117 152.553C384.144 152.518 384.18 152.482 384.206 152.446C384.879 151.568 384.708 150.323 383.83 149.651C383.794 149.624 383.749 149.588 383.705 149.561C383.938 149.158 384.036 148.684 383.947 148.191C383.848 147.636 383.525 147.188 383.086 146.901C382.898 146.471 382.557 146.131 382.154 145.925C382.306 145.575 382.36 145.172 382.288 144.76C382.1 143.766 381.213 143.085 380.236 143.139C380.263 143.049 380.281 142.959 380.299 142.861C380.63 142.503 380.837 142.028 380.837 141.499C380.837 140.398 379.94 139.502 378.838 139.502C378.784 139.502 378.739 139.502 378.686 139.511C379.161 139.143 379.474 138.57 379.474 137.925C379.474 136.931 378.748 136.107 377.789 135.954C377.789 135.829 377.78 135.695 377.753 135.56C377.565 134.539 376.615 133.84 375.593 133.939C375.405 133.787 375.181 133.67 374.939 133.598C374.509 132.971 373.729 132.622 372.932 132.765C372.421 132.864 371.991 133.142 371.704 133.527C371.668 133.536 371.641 133.536 371.605 133.545C370.521 133.751 369.813 134.79 370.01 135.874C370.019 135.901 370.019 135.928 370.028 135.945C370.01 135.945 369.992 135.954 369.974 135.954C368.889 136.16 368.181 137.2 368.379 138.283C368.379 138.292 368.388 138.31 368.388 138.319C367.509 138.66 366.971 139.582 367.151 140.541C367.24 141.025 367.5 141.446 367.868 141.732C366.998 141.947 366.353 142.736 366.353 143.667C366.353 143.936 366.407 144.196 366.505 144.429C366.237 144.769 366.075 145.199 366.075 145.665C366.075 145.907 366.12 146.14 366.201 146.363C365.448 146.65 364.91 147.376 364.91 148.227C364.91 148.657 365.053 149.06 365.287 149.391C365.053 149.723 364.91 150.117 364.91 150.556C364.91 150.887 364.991 151.201 365.134 151.469C364.776 151.828 364.561 152.32 364.561 152.867C364.561 153.924 365.385 154.793 366.434 154.856L366.667 155.196C366.783 155.536 366.998 155.841 367.276 156.065L367.518 156.414C367.518 156.414 368.549 157.373 368.952 157.928C369.356 158.484 370.825 159.37 371.273 159.603C371.318 159.63 371.372 159.648 371.426 159.675C371.444 159.756 371.471 159.827 371.489 159.908C372.035 162.058 372.224 164.467 371.999 166.779H374.231C374.76 166.796 375.342 166.734 375.683 166.438C375.683 166.438 375.307 164.969 375.307 164.073C375.307 163.249 375.154 163.034 375.504 161.431C375.844 159.863 376.131 159.585 378.04 157.641C378.551 157.122 379.071 156.567 379.555 156.038C379.895 156.172 380.272 156.217 380.666 156.146C381.114 156.065 381.5 155.832 381.778 155.518C382.1 155.635 382.45 155.662 382.808 155.599C383.893 155.393 384.601 154.354 384.404 153.27C384.359 153.01 384.26 152.768 384.117 152.553ZM374.491 160.589C374.455 160.418 374.419 160.194 374.41 159.908C374.625 158.233 374.876 156.558 375.163 154.891C375.172 154.873 375.181 154.856 375.19 154.838C375.307 155.223 375.764 155.492 376.364 155.563C375.54 157.041 374.921 158.77 374.491 160.589ZM371.99 159.505C372.026 159.541 372.053 159.558 372.053 159.558C372.053 159.558 372.035 159.55 371.999 159.541L371.99 159.505ZM371.659 157.722C371.507 157.023 371.309 156.352 371.014 155.76C370.987 155.707 370.96 155.653 370.924 155.59C371.049 155.617 371.184 155.626 371.318 155.626C371.48 155.626 371.641 155.608 371.793 155.572C371.955 155.939 372.125 156.271 372.259 156.513C372.277 156.62 372.295 156.719 372.313 156.826C372.448 157.588 372.546 158.367 372.618 159.155C372.367 158.851 372.143 158.564 372.062 158.403C371.991 158.286 371.838 158.036 371.659 157.722ZM370.395 158.645C369.768 158.116 368.997 157.498 368.405 156.764C368.343 156.683 368.271 156.593 368.199 156.504C368.316 156.522 368.432 156.54 368.558 156.54C369.078 156.54 369.553 156.343 369.911 156.011C370.09 156.271 370.252 156.531 370.377 156.799C370.736 157.561 371.049 158.376 371.3 159.236C371.005 159.075 370.664 158.869 370.395 158.645ZM372.663 163.285L372.062 159.908C372.304 159.988 372.537 160.069 372.681 160.177C372.734 161.207 372.725 162.246 372.663 163.285ZM375.109 160.311C375.584 158.492 376.355 156.782 377.44 155.653C377.458 155.769 377.422 155.948 377.243 156.361C376.803 157.355 376.068 159.003 375.773 159.388C375.522 159.702 375.477 159.917 375.109 160.311ZM378.712 156.361C377.977 156.826 377.243 157.892 377.243 157.892L376.651 158.412C376.651 158.412 377.422 157.561 377.538 156.997C377.61 156.629 377.655 155.984 377.78 155.42C378.058 155.33 378.309 155.205 378.515 155.062C378.677 155.402 378.936 155.68 379.25 155.877C379.035 156.101 378.856 156.271 378.712 156.361Z"
          fill="#EBF4FF" />
    <path d="M196.234 151.488C196.27 151.452 196.306 151.407 196.333 151.362C197.077 150.386 196.889 148.979 195.912 148.236C195.867 148.2 195.822 148.173 195.777 148.137C196.037 147.69 196.145 147.152 196.046 146.606C195.93 145.988 195.571 145.477 195.087 145.154C194.872 144.671 194.505 144.286 194.048 144.062C194.218 143.667 194.281 143.22 194.191 142.763C193.985 141.652 192.99 140.89 191.897 140.944C191.923 140.846 191.95 140.738 191.968 140.64C192.336 140.246 192.569 139.708 192.569 139.117C192.569 137.881 191.574 136.886 190.337 136.886C190.283 136.886 190.23 136.886 190.167 136.895C190.705 136.483 191.045 135.847 191.045 135.122C191.045 134.011 190.23 133.088 189.163 132.918C189.163 132.775 189.154 132.631 189.127 132.479C188.912 131.332 187.854 130.553 186.716 130.669C186.501 130.499 186.259 130.374 185.99 130.293C185.506 129.586 184.637 129.2 183.741 129.362C183.167 129.469 182.692 129.783 182.369 130.213C182.334 130.222 182.298 130.222 182.262 130.231C181.052 130.455 180.254 131.619 180.478 132.837C180.487 132.864 180.487 132.891 180.496 132.918C180.478 132.918 180.46 132.927 180.434 132.927C179.224 133.151 178.426 134.315 178.65 135.534C178.65 135.543 178.659 135.561 178.659 135.569C177.682 135.955 177.082 136.985 177.279 138.06C177.377 138.606 177.673 139.063 178.076 139.386C177.099 139.627 176.382 140.505 176.382 141.553C176.382 141.858 176.445 142.145 176.553 142.404C176.257 142.781 176.078 143.264 176.078 143.784C176.078 144.062 176.131 144.321 176.221 144.563C175.379 144.886 174.778 145.692 174.778 146.65C174.778 147.134 174.931 147.582 175.199 147.949C174.939 148.317 174.778 148.764 174.778 149.248C174.778 149.615 174.868 149.965 175.029 150.269C174.635 150.673 174.384 151.228 174.384 151.837C174.384 153.019 175.307 153.987 176.481 154.059L176.741 154.435C176.875 154.82 177.108 155.151 177.422 155.411L177.7 155.805C177.7 155.805 178.856 156.88 179.304 157.498C179.761 158.125 181.401 159.111 181.894 159.38C181.948 159.406 182.002 159.433 182.065 159.46C182.092 159.55 182.109 159.63 182.136 159.72C182.746 162.13 182.961 164.817 182.71 167.406H185.211C185.802 167.424 186.456 167.352 186.833 167.021C186.833 167.021 186.412 165.372 186.412 164.369C186.412 163.447 186.241 163.205 186.636 161.413C187.021 159.657 187.335 159.344 189.477 157.176C190.05 156.594 190.633 155.976 191.171 155.375C191.547 155.528 191.977 155.581 192.407 155.501C192.909 155.411 193.34 155.151 193.653 154.802C194.012 154.928 194.406 154.963 194.8 154.892C196.01 154.668 196.808 153.503 196.584 152.285C196.503 151.998 196.387 151.721 196.234 151.488ZM185.461 160.472C185.417 160.284 185.381 160.025 185.372 159.711C185.614 157.83 185.892 155.958 186.214 154.103C186.223 154.085 186.232 154.068 186.25 154.041C186.376 154.471 186.887 154.775 187.568 154.856C186.636 156.504 185.945 158.448 185.461 160.472ZM182.665 159.263C182.71 159.299 182.737 159.326 182.737 159.326C182.737 159.326 182.71 159.317 182.674 159.299L182.665 159.263ZM182.289 157.274C182.118 156.495 181.894 155.743 181.572 155.08C181.545 155.017 181.509 154.954 181.473 154.892C181.617 154.919 181.76 154.936 181.912 154.936C182.092 154.936 182.271 154.91 182.441 154.874C182.629 155.286 182.809 155.662 182.961 155.922C182.979 156.038 183.006 156.155 183.024 156.271C183.176 157.122 183.293 158 183.364 158.878C183.077 158.538 182.827 158.215 182.746 158.036C182.665 157.902 182.495 157.624 182.289 157.274ZM180.882 158.305C180.183 157.713 179.313 157.024 178.659 156.2C178.587 156.11 178.507 156.011 178.426 155.904C178.56 155.931 178.695 155.94 178.829 155.94C179.412 155.94 179.941 155.716 180.344 155.349C180.541 155.635 180.729 155.931 180.873 156.226C181.276 157.077 181.626 157.991 181.903 158.95C181.554 158.779 181.177 158.555 180.882 158.305ZM183.418 163.491L182.746 159.711C183.024 159.801 183.284 159.899 183.436 160.007C183.49 161.171 183.49 162.336 183.418 163.491ZM186.161 160.159C186.698 158.126 187.55 156.209 188.769 154.954C188.787 155.089 188.751 155.286 188.545 155.743C188.052 156.853 187.227 158.699 186.896 159.129C186.618 159.487 186.573 159.72 186.161 160.159ZM190.185 155.743C189.36 156.262 188.536 157.454 188.536 157.454L187.872 158.036C187.872 158.036 188.733 157.077 188.858 156.45C188.939 156.047 188.984 155.313 189.127 154.686C189.441 154.587 189.719 154.444 189.943 154.283C190.131 154.659 190.418 154.972 190.767 155.196C190.552 155.456 190.337 155.644 190.185 155.743Z"
          fill="#EBF4FF" />
    <path d="M209.696 69.8633H205.672V154.516H209.696V69.8633Z"
          fill="#EBF4FF" />
    <path d="M216.552 99.6929H212.527V148.872H216.552V99.6929Z"
          fill="#EBF4FF" />
    <path d="M223.409 99.6929H219.385V148.872H223.409V99.6929Z"
          fill="#EBF4FF" />
    <path d="M202.839 76.9937H198.814V125.492H202.839V76.9937Z"
          fill="#EBF4FF" />
    <path d="M195.983 76.9937H191.959V125.492H195.983V76.9937Z"
          fill="#EBF4FF" />
    <path d="M123.038 159.478H102.415V164.244H123.038V159.478Z"
          fill="#EBF4FF" />
    <path d="M123.037 164.234V151.541H129.392L132.564 156.298L137.332 157.892V164.234H123.037Z"
          fill="#EBF4FF" />
    <path d="M110.338 167.728C108.411 167.728 106.852 166.16 106.852 164.243C106.852 162.326 108.42 160.758 110.338 160.758C112.265 160.758 113.824 162.326 113.824 164.243C113.824 166.16 112.265 167.728 110.338 167.728Z"
          fill="#EBF4FF" />
    <path d="M110.338 161.064C112.095 161.064 113.511 162.488 113.511 164.235C113.511 165.99 112.086 167.406 110.338 167.406C108.591 167.406 107.165 165.981 107.165 164.235C107.157 162.488 108.582 161.064 110.338 161.064ZM110.338 160.437C108.241 160.437 106.538 162.139 106.538 164.235C106.538 166.331 108.241 168.033 110.338 168.033C112.435 168.033 114.138 166.331 114.138 164.235C114.138 162.139 112.435 160.437 110.338 160.437Z"
          fill="#EBF4FF" />
    <path d="M130.98 167.728C129.053 167.728 127.493 166.16 127.493 164.243C127.493 162.326 129.062 160.758 130.98 160.758C132.907 160.758 134.466 162.326 134.466 164.243C134.466 166.16 132.907 167.728 130.98 167.728Z"
          fill="#EBF4FF" />
    <path d="M130.979 161.064C132.735 161.064 134.152 162.488 134.152 164.235C134.152 165.99 132.727 167.406 130.979 167.406C129.222 167.406 127.806 165.981 127.806 164.235C127.806 162.488 129.222 161.064 130.979 161.064ZM130.979 160.437C128.882 160.437 127.179 162.139 127.179 164.235C127.179 166.331 128.882 168.033 130.979 168.033C133.076 168.033 134.779 166.331 134.779 164.235C134.788 162.139 133.076 160.437 130.979 160.437Z"
          fill="#EBF4FF" />
    <path d="M123.056 145.189H102.415V159.477H123.038L123.056 145.189Z"
          fill="#EBF4FF" />
    <path d="M121.47 146.775H104.002V157.883H121.47V146.775Z"
          fill="#EBF4FF" />
    <path d="M113.528 146.775H111.941V157.883H113.528V146.775Z"
          fill="#EBF4FF" />
    <path d="M123.037 151.541H129.392L132.564 156.298H123.046L123.037 151.541Z"
          fill="#EBF4FF" />
    <path d="M131.616 156.297L128.972 152.329H124.688V156.297H131.616Z"
          fill="#EBF4FF" />
    <path d="M359.523 92.6968H327.895V168.275H359.523V92.6968Z"
          fill="#EBF4FF" />
    <path d="M323.431 95.3217L327.123 92.3656L334.49 90.5919L343.713 85.8711L352.926 90.583L360.294 92.3656L363.986 95.3217H323.431Z"
          fill="#EBF4FF" />
    <path d="M345.506 94.0488H341.481V157.793H345.506V94.0488Z"
          fill="#EBF4FF" />
    <path d="M352.684 99.4771H348.66V157.793H352.684V99.4771Z"
          fill="#EBF4FF" />
    <path d="M338.327 99.4771H334.303V157.793H338.327V99.4771Z"
          fill="#EBF4FF" />
    <path d="M369.196 106.124V107.558H388.448V106.124H369.196Z"
          fill="#EBF4FF" />
    <path d="M369.198 108.238V109.671H388.45V108.238H369.198Z"
          fill="#EBF4FF" />
    <path d="M369.199 110.35V111.783H388.451V110.35H369.199Z"
          fill="#EBF4FF" />
    <path d="M145.76 102.973V104.406H165.011V102.973H145.76Z"
          fill="#EBF4FF" />
    <path d="M145.761 105.085V106.519H165.012V105.085H145.761Z"
          fill="#EBF4FF" />
    <path d="M145.763 107.198V108.631H165.014V107.198H145.763Z"
          fill="#EBF4FF" />
    <path d="M150.92 110.228V111.661H170.171V110.228H150.92Z"
          fill="#EBF4FF" />
    <path d="M150.921 112.342V113.775H170.172V112.342H150.921Z"
          fill="#EBF4FF" />
    <path d="M150.922 114.453V115.887H170.173V114.453H150.922Z"
          fill="#EBF4FF" />
    <path d="M140.65 117.485V118.918H159.902V117.485H140.65Z"
          fill="#EBF4FF" />
    <path d="M140.651 119.597V121.03H159.903V119.597H140.651Z"
          fill="#EBF4FF" />
    <path d="M140.653 121.709V123.143H159.905V121.709H140.653Z"
          fill="#EBF4FF" />
    <path d="M147.479 124.741V126.174H166.73V124.741H147.479Z"
          fill="#EBF4FF" />
    <path d="M147.479 126.854V128.287H166.731V126.854H147.479Z"
          fill="#EBF4FF" />
    <path d="M147.481 128.966V130.399H166.733V128.966H147.481Z"
          fill="#EBF4FF" />
    <path d="M40.4745 146.086C40.2863 145.826 40.0353 145.62 39.7665 145.477C40.4028 144.769 40.4745 143.685 39.8919 142.888C39.7754 142.727 39.632 142.583 39.4797 142.467C39.9457 141.768 39.9547 140.819 39.4259 140.102C38.7537 139.188 37.472 138.982 36.5489 139.645C36.1366 139.43 35.6527 139.359 35.1956 139.457C35.321 138.803 35.1328 138.104 34.6309 137.594C33.8243 136.788 32.5158 136.788 31.7091 137.594C31.6822 137.621 31.6643 137.639 31.6464 137.666C31.5478 137.486 31.4313 137.316 31.27 137.155C30.4633 136.349 29.1548 136.349 28.3482 137.155C28.2944 137.209 28.2496 137.262 28.1958 137.325C27.4788 137.092 26.6632 137.253 26.0896 137.827C26.0358 137.881 25.991 137.934 25.9462 137.988C25.5698 138.069 25.2023 138.257 24.9066 138.552C24.2254 139.233 24.1179 140.254 24.5839 141.052C24.2613 141.661 24.2613 142.404 24.5929 143.013C24.3599 143.112 24.1447 143.255 23.9565 143.443C23.1499 144.25 23.1499 145.557 23.9565 146.364C24.4047 146.812 24.9962 147.009 25.5788 146.964C25.5788 147 25.5788 147.027 25.5877 147.062C24.7273 147.752 24.5481 148.997 25.2113 149.893C25.5339 150.332 26 150.61 26.4929 150.699C26.4302 151.201 26.5557 151.721 26.8783 152.159C27.0845 152.437 27.3354 152.643 27.6222 152.787C28.2586 153.557 29.0293 154.327 29.4506 155.116C30.2662 156.656 30.8398 158.448 31.1086 160.329C31.1176 160.401 31.1266 160.472 31.1355 160.544L30.8129 167.415H32.7936L32.4709 160.661C32.6771 159.801 32.9997 158.985 33.3762 158.269C34.2635 156.576 35.4465 155.241 36.4234 153.655C36.9253 152.84 37.3735 151.918 37.6871 150.932C37.9381 150.87 38.1891 150.753 38.4131 150.592C38.8433 150.278 39.1212 149.821 39.2197 149.338C39.5065 149.284 39.7754 149.159 40.0264 148.979C40.9495 148.299 41.1467 147.009 40.4745 146.086ZM29.2444 152.876C29.3251 152.849 29.4147 152.813 29.4954 152.769C29.8897 152.984 30.3379 153.055 30.786 152.993C30.8129 153.799 30.8398 154.605 30.8577 155.411C30.4544 154.524 29.8897 153.62 29.2444 152.876ZM34.0842 155.581C33.5733 156.388 32.7309 157.23 32.1304 156.558C31.8436 156.235 31.7539 155.662 31.7539 155.142C31.7629 154.22 31.987 153.333 32.1573 152.437C32.1573 152.437 32.1573 152.437 32.1573 152.428C32.8653 153.028 33.9229 153.082 34.7026 152.509C34.7205 152.491 34.7474 152.473 34.7654 152.455C35.097 152.589 35.4644 152.643 35.8229 152.598C35.2673 153.629 34.6847 154.614 34.0842 155.581Z"
          fill="#EBF4FF" />
    <path d="M8.04492 94.9125V96.1846H11.6568V94.9125H8.04492Z"
          fill="#EBF4FF" />
    <path d="M8.04297 96.7856V98.0576H11.6549V96.7856H8.04297Z"
          fill="#EBF4FF" />
    <path d="M8.04199 98.6586V99.9307H11.6539V98.6586H8.04199Z"
          fill="#EBF4FF" />
    <path d="M14.5391 94.9082V96.1802H18.151V94.9082H14.5391Z"
          fill="#EBF4FF" />
    <path d="M14.5381 96.7817V98.0537H18.15V96.7817H14.5381Z"
          fill="#EBF4FF" />
    <path d="M14.5361 98.6557V99.9277H18.148V98.6557H14.5361Z"
          fill="#EBF4FF" />
    <path d="M21.0332 94.9038V96.1758H24.6451V94.9038H21.0332Z"
          fill="#EBF4FF" />
    <path d="M21.0312 96.7783V98.0503H24.6431V96.7783H21.0312Z"
          fill="#EBF4FF" />
    <path d="M21.0303 98.6513V99.9233H24.6422V98.6513H21.0303Z"
          fill="#EBF4FF" />
    <path d="M27.5273 94.9091V96.1812H31.1393V94.9091H27.5273Z"
          fill="#EBF4FF" />
    <path d="M27.5264 96.7836V98.0557H31.1383V96.7836H27.5264Z"
          fill="#EBF4FF" />
    <path d="M27.5244 98.6582V99.9302H31.1363V98.6582H27.5244Z"
          fill="#EBF4FF" />
    <path d="M8.03906 102.396V103.668H11.651V102.396H8.03906Z"
          fill="#EBF4FF" />
    <path d="M8.03711 104.27V105.542H11.649V104.27H8.03711Z"
          fill="#EBF4FF" />
    <path d="M8.03613 106.144V107.416H11.648V106.144H8.03613Z"
          fill="#EBF4FF" />
    <path d="M14.5332 102.393V103.665H18.1451V102.393H14.5332Z"
          fill="#EBF4FF" />
    <path d="M14.5322 104.266V105.538H18.1441V104.266H14.5322Z"
          fill="#EBF4FF" />
    <path d="M14.5303 106.14V107.412H18.1422V106.14H14.5303Z"
          fill="#EBF4FF" />
    <path d="M21.0273 102.389V103.661H24.6393V102.389H21.0273Z"
          fill="#EBF4FF" />
    <path d="M21.0254 104.263V105.535H24.6373V104.263H21.0254Z"
          fill="#EBF4FF" />
    <path d="M21.0254 106.136V107.408H24.6373V106.136H21.0254Z"
          fill="#EBF4FF" />
    <path d="M27.5215 102.394V103.666H31.1334V102.394H27.5215Z"
          fill="#EBF4FF" />
    <path d="M27.5195 104.269V105.541H31.1314V104.269H27.5195Z"
          fill="#EBF4FF" />
    <path d="M27.5186 106.142V107.414H31.1305V106.142H27.5186Z"
          fill="#EBF4FF" />
    <path d="M715.247 168.275V112.969H719.97V100.06H730.716V93.6017L739.455 80.4604H747.494V168.275H715.247Z"
          fill="#EBF4FF" />
    <path d="M802.543 168.275V90.3139H792.755V83.8195H784.537V79.3315H774.158V168.275H802.543Z"
          fill="#EBF4FF" />
    <path d="M645.993 168.276V82.8797H650.008L653.432 90.1983H658.514L662.475 81.7421H668.346L672.621 72.605H681.906V168.276H645.993Z"
          fill="#EBF4FF" />
    <path d="M722.981 55.6917L715.381 52.4848L712.531 47.1549L700.171 38.6807L687.839 47.1907L684.989 52.5117L677.397 55.7276H680.463L680.561 168.275H720.355L720.256 55.6917H722.981Z"
          fill="#EBF4FF" />
    <path d="M684.721 113.049L684.725 116.686L690.9 116.681L690.897 113.044L684.721 113.049Z"
          fill="#EBF4FF" />
    <path d="M684.724 120.807L684.728 124.444L690.903 124.438L690.9 120.802L684.724 120.807Z"
          fill="#EBF4FF" />
    <path d="M684.729 128.557L684.732 132.194L690.908 132.188L690.904 128.551L684.729 128.557Z"
          fill="#EBF4FF" />
    <path d="M684.708 105.299L684.711 108.936L690.886 108.931L690.883 105.294L684.708 105.299Z"
          fill="#EBF4FF" />
    <path d="M684.705 97.5491L684.708 101.186L690.883 101.181L690.88 97.5437L684.705 97.5491Z"
          fill="#EBF4FF" />
    <path d="M692.956 113.042L692.959 116.679L699.134 116.673L699.131 113.036L692.956 113.042Z"
          fill="#EBF4FF" />
    <path d="M692.964 128.55L692.967 132.187L699.142 132.181L699.139 128.544L692.964 128.55Z"
          fill="#EBF4FF" />
    <path d="M692.943 105.29L692.946 108.927L699.121 108.922L699.118 105.285L692.943 105.29Z"
          fill="#EBF4FF" />
    <path d="M692.94 97.5418L692.943 101.179L699.119 101.173L699.115 97.5364L692.94 97.5418Z"
          fill="#EBF4FF" />
    <path d="M701.19 113.033L701.193 116.67L707.369 116.664L707.365 113.028L701.19 113.033Z"
          fill="#EBF4FF" />
    <path d="M701.194 120.792L701.197 124.429L707.372 124.424L707.369 120.787L701.194 120.792Z"
          fill="#EBF4FF" />
    <path d="M701.207 128.542L701.21 132.179L707.385 132.174L707.382 128.537L701.207 128.542Z"
          fill="#EBF4FF" />
    <path d="M701.175 97.5345L701.178 101.171L707.353 101.166L707.35 97.529L701.175 97.5345Z"
          fill="#EBF4FF" />
    <path d="M709.425 113.026L709.429 116.663L715.604 116.657L715.601 113.02L709.425 113.026Z"
          fill="#EBF4FF" />
    <path d="M709.429 120.785L709.433 124.422L715.608 124.416L715.605 120.78L709.429 120.785Z"
          fill="#EBF4FF" />
    <path d="M709.442 128.533L709.445 132.17L715.621 132.165L715.617 128.528L709.442 128.533Z"
          fill="#EBF4FF" />
    <path d="M709.423 105.277L709.426 108.914L715.601 108.909L715.598 105.272L709.423 105.277Z"
          fill="#EBF4FF" />
    <path d="M684.744 144.792L684.747 148.429L690.922 148.423L690.919 144.786L684.744 144.792Z"
          fill="#EBF4FF" />
    <path d="M684.749 152.551L684.752 156.188L690.927 156.183L690.924 152.546L684.749 152.551Z"
          fill="#EBF4FF" />
    <path d="M684.741 137.042L684.744 140.679L690.919 140.673L690.916 137.036L684.741 137.042Z"
          fill="#EBF4FF" />
    <path d="M692.98 144.783L692.983 148.42L699.159 148.414L699.155 144.778L692.98 144.783Z"
          fill="#EBF4FF" />
    <path d="M692.992 152.542L692.995 156.179L699.17 156.174L699.167 152.537L692.992 152.542Z"
          fill="#EBF4FF" />
    <path d="M692.975 137.034L692.979 140.671L699.154 140.666L699.15 137.029L692.975 137.034Z"
          fill="#EBF4FF" />
    <path d="M701.215 144.776L701.218 148.413L707.393 148.407L707.39 144.77L701.215 144.776Z"
          fill="#EBF4FF" />
    <path d="M709.459 144.77L709.462 148.407L715.637 148.401L715.634 144.764L709.459 144.77Z"
          fill="#EBF4FF" />
    <path d="M709.462 152.528L709.465 156.165L715.64 156.159L715.637 152.522L709.462 152.528Z"
          fill="#EBF4FF" />
    <path d="M709.446 137.02L709.449 140.657L715.624 140.651L715.621 137.014L709.446 137.02Z"
          fill="#EBF4FF" />
    <path d="M709.409 97.5272L709.412 101.164L715.587 101.159L715.584 97.5217L709.409 97.5272Z"
          fill="#EBF4FF" />
    <path d="M684.68 73.2366L684.684 76.8735L690.859 76.8681L690.856 73.2312L684.68 73.2366Z"
          fill="#EBF4FF" />
    <path d="M684.685 80.9944L684.688 84.6313L690.864 84.6259L690.86 80.989L684.685 80.9944Z"
          fill="#EBF4FF" />
    <path d="M684.697 88.7435L684.7 92.3804L690.875 92.3749L690.872 88.738L684.697 88.7435Z"
          fill="#EBF4FF" />
    <path d="M684.677 65.4866L684.681 69.1235L690.856 69.1181L690.853 65.4812L684.677 65.4866Z"
          fill="#EBF4FF" />
    <path d="M684.664 57.7366L684.667 61.3735L690.842 61.3681L690.839 57.7312L684.664 57.7366Z"
          fill="#EBF4FF" />
    <path d="M692.916 73.2293L692.919 76.8662L699.094 76.8608L699.091 73.2239L692.916 73.2293Z"
          fill="#EBF4FF" />
    <path d="M692.928 80.9876L692.932 84.6245L699.107 84.6191L699.104 80.9822L692.928 80.9876Z"
          fill="#EBF4FF" />
    <path d="M692.912 65.4783L692.915 69.1152L699.09 69.1098L699.087 65.4729L692.912 65.4783Z"
          fill="#EBF4FF" />
    <path d="M701.163 80.9803L701.166 84.6172L707.341 84.6117L707.338 80.9748L701.163 80.9803Z"
          fill="#EBF4FF" />
    <path d="M701.167 88.7288L701.17 92.3657L707.345 92.3603L707.342 88.7234L701.167 88.7288Z"
          fill="#EBF4FF" />
    <path d="M701.147 65.471L701.15 69.1079L707.326 69.1025L707.322 65.4655L701.147 65.471Z"
          fill="#EBF4FF" />
    <path d="M709.394 73.2137L709.397 76.8506L715.573 76.8451L715.569 73.2082L709.394 73.2137Z"
          fill="#EBF4FF" />
    <path d="M709.398 80.9729L709.401 84.6099L715.577 84.6044L715.573 80.9675L709.398 80.9729Z"
          fill="#EBF4FF" />
    <path d="M709.401 88.7215L709.404 92.3584L715.579 92.353L715.576 88.716L709.401 88.7215Z"
          fill="#EBF4FF" />
    <path d="M709.382 65.4647L709.385 69.1016L715.56 69.0961L715.557 65.4592L709.382 65.4647Z"
          fill="#EBF4FF" />
    <path d="M709.378 57.7146L709.381 61.3516L715.556 61.3461L715.553 57.7092L709.378 57.7146Z"
          fill="#EBF4FF" />
    <path d="M603.537 67.6775V168.275H646.898V67.6775V54.1421L603.537 67.6775Z"
          fill="#EBF4FF" />
    <path d="M833.999 100.275H802.021L801.161 101.019V103.223L800.928 105.417H799.314V168.275H833.399L833.999 100.275Z"
          fill="#EBF4FF" />
    <path d="M793.024 113.382V114.815H812.276V113.382H793.024Z"
          fill="#EBF4FF" />
    <path d="M793.026 115.494V116.928H812.278V115.494H793.026Z"
          fill="#EBF4FF" />
    <path d="M793.027 117.607V119.04H812.279V117.607H793.027Z"
          fill="#EBF4FF" />
    <path d="M799.856 121.457V122.89H819.108V121.457H799.856Z"
          fill="#EBF4FF" />
    <path d="M799.85 123.57V125.003H819.101V123.57H799.85Z"
          fill="#EBF4FF" />
    <path d="M799.851 125.682V127.116H819.102V125.682H799.851Z"
          fill="#EBF4FF" />
    <path d="M806.685 128.715V130.148H825.936V128.715H806.685Z"
          fill="#EBF4FF" />
    <path d="M806.687 130.827V132.26H825.938V130.827H806.687Z"
          fill="#EBF4FF" />
    <path d="M806.679 132.939V134.373H825.93V132.939H806.679Z"
          fill="#EBF4FF" />
    <path d="M813.27 95.4106H811.729V100.552H813.27V95.4106Z"
          fill="#EBF4FF" />
    <path d="M805.445 97.982L807.605 88.3701H821.094L818.943 97.982H805.445Z"
          fill="#EBF4FF" />
    <path d="M812.069 89.9644H811.648H808.842L808.511 91.4693H811.316H811.737H813.189L813.53 89.9644H812.069Z"
          fill="#EBF4FF" />
    <path d="M817.563 89.9644H817.258H814.453L814.121 91.4693H816.917H817.222H818.8L819.14 89.9644H817.563Z"
          fill="#EBF4FF" />
    <path d="M811.88 92.4272H811.1H808.295L807.954 93.9232H810.759H811.548H812.642L812.973 92.4272H811.88Z"
          fill="#EBF4FF" />
    <path d="M817.572 92.4272H816.711H813.906L813.565 93.9232H816.371H817.24H818.253L818.584 92.4272H817.572Z"
          fill="#EBF4FF" />
    <path d="M811.235 94.8823H810.545H807.74L807.408 96.3783H810.214H810.895H812.087L812.427 94.8823H811.235Z"
          fill="#EBF4FF" />
    <path d="M816.765 94.8823H816.155H813.35L813.019 96.3783H815.824H816.433H817.697L818.038 94.8823H816.765Z"
          fill="#EBF4FF" />
    <path d="M744.331 75.3188H742.789V80.4607H744.331V75.3188Z"
          fill="#EBF4FF" />
    <path d="M736.506 77.8897L738.666 68.2778H752.154L750.003 77.8897H736.506Z"
          fill="#EBF4FF" />
    <path d="M743.13 69.8804H742.709H739.904L739.572 71.3763H742.369H742.799H744.251L744.591 69.8804H743.13Z"
          fill="#EBF4FF" />
    <path d="M748.614 69.8804H748.319H745.513L745.173 71.3763H747.978H748.283H749.86L750.192 69.8804H748.614Z"
          fill="#EBF4FF" />
    <path d="M742.94 72.3354H742.161H739.355L739.015 73.8314H741.82H742.609H743.702L744.034 72.3354H742.94Z"
          fill="#EBF4FF" />
    <path d="M748.633 72.3354H747.764H744.959L744.627 73.8314H747.432H748.302H749.314L749.646 72.3354H748.633Z"
          fill="#EBF4FF" />
    <path d="M742.287 74.7905H741.606H738.8L738.469 76.2955H741.274H741.955H743.147L743.488 74.7905H742.287Z"
          fill="#EBF4FF" />
    <path d="M747.825 74.7905H747.216H744.411L744.079 76.2955H746.875H747.494H748.758L749.098 74.7905H747.825Z"
          fill="#EBF4FF" />
    <path d="M573.702 87.3838H572.16V92.5256H573.702V87.3838Z"
          fill="#EBF4FF" />
    <path d="M565.877 89.9551L568.037 80.3433H581.526L579.375 89.9551H565.877Z"
          fill="#EBF4FF" />
    <path d="M572.501 81.9375H572.079H569.274L568.942 83.4335H571.748H572.169H573.621L573.961 81.9375H572.501Z"
          fill="#EBF4FF" />
    <path d="M577.994 81.9375H577.69H574.884L574.553 83.4335H577.349H577.654H579.231L579.572 81.9375H577.994Z"
          fill="#EBF4FF" />
    <path d="M572.312 84.3916H571.533H568.727L568.387 85.8965H571.192H571.981H573.074L573.406 84.3916H572.312Z"
          fill="#EBF4FF" />
    <path d="M578.003 84.3916H577.143H574.338L573.997 85.8965H576.802H577.672H578.684L579.016 84.3916H578.003Z"
          fill="#EBF4FF" />
    <path d="M571.667 86.8555H570.977H568.171L567.84 88.3514H570.645H571.326H572.518L572.859 86.8555H571.667Z"
          fill="#EBF4FF" />
    <path d="M577.197 86.8555H576.587H573.782L573.45 88.3514H576.255H576.865H578.129L578.469 86.8555H577.197Z"
          fill="#EBF4FF" />
    <path d="M509.646 89.0059H508.687H507.737L505.882 150.394H508.687H511.501L509.646 89.0059Z"
          fill="#EBF4FF" />
    <g class="rotate-3">
      <path d="M507.514 87.4656C508.222 88.1196 509.324 88.0748 509.978 87.3671C510.633 86.6594 510.588 85.5576 509.88 84.9037C509.172 84.2497 508.069 84.2945 507.415 85.0022C506.761 85.7099 506.806 86.8207 507.514 87.4656ZM509.423 85.3964C509.862 85.7995 509.889 86.4803 509.485 86.9192C509.082 87.3581 508.401 87.385 507.962 86.9819C507.523 86.5788 507.496 85.898 507.899 85.4591C508.302 85.0201 508.984 84.9932 509.423 85.3964Z"
            fill="#EBF4FF" />
      <path d="M492.635 62.6069L502.834 81.2663L506.204 84.312L507.038 83.7476L507.871 83.1833L506.276 78.9283L492.635 62.6069Z"
            fill="#EBF4FF" />
      <path d="M496.292 111.875L507.37 93.7173L508.32 89.2742L507.415 88.8442L506.509 88.4053L503.623 91.9168L496.292 111.875Z"
            fill="#EBF4FF" />
      <path d="M537.16 84.0705L515.892 83.5688L511.563 84.9663L511.644 85.9696L511.716 86.9729L516.197 87.7164L537.16 84.0705Z"
            fill="#EBF4FF" />
    </g>
    <path d="M776.506 39.6831H775.296H774.086L773.36 92.4363H776.918H780.477L776.506 39.6831Z"
          fill="#EBF4FF" />
    <g class="rotate-4">
      <path d="M772.992 36.2622C773.01 37.4804 774.013 38.4569 775.241 38.43C776.469 38.4031 777.437 37.4088 777.41 36.1815C777.392 34.9633 776.389 33.9869 775.161 34.0137C773.933 34.0406 772.965 35.0439 772.992 36.2622ZM776.568 36.1995C776.577 36.9519 775.976 37.579 775.223 37.5879C774.471 37.5969 773.843 36.9967 773.834 36.2442C773.825 35.4918 774.426 34.8647 775.179 34.8558C775.932 34.8468 776.55 35.447 776.568 36.1995Z"
            fill="#EBF4FF" />
      <path d="M782.798 0.887207L774.588 26.5516L774.749 32.3116L775.995 32.5803L777.241 32.8401L779.741 27.6624L782.798 0.887207Z"
            fill="#EBF4FF" />
      <path d="M740.78 47.3251L767.13 41.601L772.042 38.5912L771.647 37.3729L771.253 36.1636L765.517 36.5846L740.78 47.3251Z"
            fill="#EBF4FF" />
      <path d="M802.038 60.4759L783.898 40.5356L778.834 37.7944L777.974 38.735L777.122 39.6846L780.358 44.4412L802.038 60.4759Z"
            fill="#EBF4FF" />
    </g>
    <path d="M740.835 146.086C740.647 145.826 740.396 145.62 740.127 145.477C740.763 144.769 740.835 143.685 740.252 142.888C740.136 142.727 739.992 142.583 739.84 142.467C740.306 141.768 740.315 140.819 739.786 140.102C739.114 139.188 737.832 138.982 736.909 139.645C736.497 139.43 736.013 139.359 735.556 139.457C735.681 138.803 735.493 138.104 734.991 137.594C734.185 136.788 732.876 136.788 732.069 137.594C732.043 137.621 732.025 137.639 732.007 137.666C731.908 137.486 731.792 137.316 731.63 137.155C730.824 136.349 729.515 136.349 728.709 137.155C728.655 137.209 728.61 137.262 728.556 137.325C727.839 137.092 727.024 137.253 726.45 137.827C726.396 137.881 726.351 137.934 726.307 137.988C725.93 138.069 725.563 138.257 725.267 138.552C724.586 139.233 724.478 140.254 724.944 141.052C724.622 141.661 724.622 142.404 724.953 143.013C724.72 143.112 724.505 143.255 724.317 143.443C723.51 144.25 723.51 145.557 724.317 146.364C724.765 146.812 725.357 147.009 725.939 146.964C725.939 147 725.939 147.027 725.948 147.062C725.088 147.752 724.908 148.997 725.572 149.893C725.894 150.332 726.36 150.61 726.853 150.699C726.791 151.201 726.916 151.721 727.239 152.159C727.445 152.437 727.696 152.643 727.983 152.787C728.619 153.557 729.39 154.327 729.811 155.116C730.627 156.656 731.2 158.448 731.469 160.329C731.478 160.401 731.487 160.472 731.496 160.544L731.173 167.415H733.154L732.831 160.661C733.037 159.801 733.36 158.985 733.737 158.269C734.624 156.576 735.807 155.241 736.784 153.655C737.286 152.84 737.734 151.918 738.047 150.932C738.298 150.87 738.549 150.753 738.773 150.592C739.204 150.278 739.482 149.821 739.58 149.338C739.867 149.284 740.136 149.159 740.387 148.979C741.31 148.299 741.516 147.009 740.835 146.086ZM729.605 152.876C729.685 152.849 729.775 152.813 729.856 152.769C730.25 152.984 730.698 153.055 731.146 152.993C731.173 153.799 731.2 154.605 731.218 155.411C730.815 154.524 730.25 153.62 729.605 152.876ZM734.445 155.581C733.934 156.388 733.091 157.23 732.491 156.558C732.204 156.235 732.114 155.662 732.114 155.142C732.123 154.22 732.347 153.333 732.518 152.437C732.518 152.437 732.518 152.437 732.518 152.428C733.226 153.028 734.283 153.082 735.063 152.509C735.081 152.491 735.108 152.473 735.126 152.455C735.457 152.589 735.825 152.643 736.183 152.598C735.628 153.629 735.045 154.614 734.445 155.581Z"
          fill="#EBF4FF" />
    <path d="M675.578 143.981C675.165 142.834 674.045 142.933 674.045 142.933C674.045 142.933 674.395 142.664 674.592 142.386C674.95 141.867 674.959 140.711 674.395 140.219C673.821 139.735 672.88 139.869 672.88 139.869C672.88 139.869 673.911 139.081 673.749 137.889C673.615 136.868 673.364 136.107 672.387 135.614C671.509 135.166 669.053 135.005 667.691 135.784C667.449 135.928 667.251 136.098 667.09 136.277C667.108 135.641 666.579 134.7 665.871 134.557C665.136 134.405 664.383 134.978 664.383 134.978C664.383 134.978 664.903 133.796 664.195 132.828C663.586 131.995 663.003 131.449 661.91 131.485C660.924 131.511 658.692 132.551 657.868 133.885C657.5 134.494 657.482 135.113 657.572 135.605C656.577 134.718 654.435 134.27 653.781 134.405C653.082 134.548 651.065 135.417 650.097 137.173C649.129 138.929 650.671 140.577 650.671 140.577C650.671 140.577 649.739 141.437 649.918 142.279C650.097 143.121 650.895 143.649 650.608 143.605C650.33 143.56 649.21 144.742 648.968 145.154C648.726 145.566 648.376 146.462 648.52 147.161C648.663 147.86 649.049 148.603 650.097 149.006C651.235 149.436 651.89 148.523 651.89 148.523C651.89 148.523 651.863 148.961 651.952 149.293C652.114 149.911 652.983 150.663 653.727 150.547C654.471 150.431 654.973 149.624 654.973 149.624C654.973 149.624 654.901 150.914 655.914 151.568C656.478 151.927 656.98 152.186 657.536 152.204C657.554 152.249 657.581 152.294 657.59 152.339C657.93 153.315 658.567 153.924 658.863 154.954C659.158 155.993 659.786 158.914 659.4 160.257C659.006 161.601 658.961 165.435 657.249 166.528C655.537 167.621 658.325 167.074 659.06 167.012C659.795 166.949 659.696 166.528 660.377 166.582C661.058 166.635 660.718 166.716 661.65 167.2C662.582 167.683 663.263 166.77 663.46 166.77C663.657 166.77 664.832 167.003 665.414 167.343C665.997 167.683 665.217 166.528 665.217 166.528C665.217 166.528 663.362 164.217 663.165 162.631C662.967 161.046 662.77 159.156 663.165 157.695C663.559 156.235 663.846 154.65 664.921 153.064C665.235 152.598 665.62 152.159 666.024 151.747C666.221 151.729 666.409 151.712 666.606 151.667C668.569 151.264 668.811 149.015 668.811 149.015C668.811 149.015 670.075 149.167 670.595 148.478C671.114 147.797 670.998 146.847 671.15 147.089C671.303 147.331 672.925 147.412 673.391 147.331C673.857 147.25 674.771 146.928 675.201 146.373C675.64 145.817 675.954 145.038 675.578 143.981ZM660.888 152.643C660.565 153.127 660.368 153.252 659.589 152.58C659.293 152.321 659.087 152.07 658.907 151.801C659.544 151.389 660.359 150.565 660.906 149.66C660.924 149.66 660.951 149.66 660.978 149.66C661.067 150.61 661.157 152.249 660.888 152.643ZM663.738 153.369C663.057 153.673 662.179 153.369 662.08 152.518C662.017 152.007 662.017 151.38 662.035 150.61C662.053 150.628 662.08 150.655 662.098 150.663C662.519 150.995 663.756 151.631 665.181 151.738C664.608 152.392 664.222 153.154 663.738 153.369Z"
          fill="#EBF4FF" />
    <path d="M540.477 117.259L525.25 98.6538L510.022 117.259V144.348V168.275H525.25H540.477V144.348V117.259Z"
          fill="#EBF4FF" />
    <path d="M417 168.274H477.614V130.866H456.346V88.0384H456.247V86.9186H447.437L436.744 77.1187L426.052 86.9186H417.045V88.0384H417V118.244"
          fill="#EBF4FF" />
    <path d="M513.702 118.251V119.523H517.314V118.251H513.702Z"
          fill="#EBF4FF" />
    <path d="M513.701 120.126V121.398H517.313V120.126H513.701Z"
          fill="#EBF4FF" />
    <path d="M513.708 121.999V123.271H517.32V121.999H513.708Z"
          fill="#EBF4FF" />
    <path d="M520.197 118.248V119.52H523.809V118.248H520.197Z"
          fill="#EBF4FF" />
    <path d="M520.194 120.122V121.394H523.806V120.122H520.194Z"
          fill="#EBF4FF" />
    <path d="M520.202 121.996V123.268H523.814V121.996H520.202Z"
          fill="#EBF4FF" />
    <path d="M526.69 118.253V119.525H530.302V118.253H526.69Z"
          fill="#EBF4FF" />
    <path d="M526.688 120.126V121.398H530.3V120.126H526.688Z"
          fill="#EBF4FF" />
    <path d="M526.696 122.001V123.273H530.308V122.001H526.696Z"
          fill="#EBF4FF" />
    <path d="M533.186 118.25V119.522H536.797V118.25H533.186Z"
          fill="#EBF4FF" />
    <path d="M533.184 120.123V121.395H536.795V120.123H533.184Z"
          fill="#EBF4FF" />
    <path d="M533.19 121.998V123.27H536.802V121.998H533.19Z"
          fill="#EBF4FF" />
    <path d="M513.706 125.736V127.008H517.318V125.736H513.706Z"
          fill="#EBF4FF" />
    <path d="M513.705 127.61V128.882H517.317V127.61H513.705Z"
          fill="#EBF4FF" />
    <path d="M513.703 129.483V130.755H517.315V129.483H513.703Z"
          fill="#EBF4FF" />
    <path d="M520.2 125.732V127.004H523.812V125.732H520.2Z"
          fill="#EBF4FF" />
    <path d="M520.199 127.606V128.878H523.811V127.606H520.199Z"
          fill="#EBF4FF" />
    <path d="M520.196 129.48V130.752H523.808V129.48H520.196Z"
          fill="#EBF4FF" />
    <path d="M526.694 125.738V127.01H530.306V125.738H526.694Z"
          fill="#EBF4FF" />
    <path d="M526.692 127.611V128.883H530.304V127.611H526.692Z"
          fill="#EBF4FF" />
    <path d="M526.691 129.485V130.757H530.303V129.485H526.691Z"
          fill="#EBF4FF" />
    <path d="M533.188 125.735V127.007H536.8V125.735H533.188Z"
          fill="#EBF4FF" />
    <path d="M533.188 127.608V128.88H536.799V127.608H533.188Z"
          fill="#EBF4FF" />
    <path d="M533.186 129.481V130.753H536.797V129.481H533.186Z"
          fill="#EBF4FF" />
    <path d="M502.476 122.491L483.234 105.507L463.991 122.491V147.206V168.275H483.234H502.476V147.206V122.491Z"
          fill="#EBF4FF" />
    <path d="M480.769 125.545H475.57V133.393H480.769V125.545Z"
          fill="#EBF4FF" />
    <path d="M490.905 125.545H485.707V133.393H490.905V125.545Z"
          fill="#EBF4FF" />
    <path d="M480.769 138.015H475.57V145.862H480.769V138.015Z"
          fill="#EBF4FF" />
    <path d="M490.905 138.015H485.707V145.862H490.905V138.015Z"
          fill="#EBF4FF" />
    <path d="M480.769 150.484H475.57V158.332H480.769V150.484Z"
          fill="#EBF4FF" />
    <path d="M490.905 150.484H485.707V158.332H490.905V150.484Z"
          fill="#EBF4FF" />
    <path d="M526.468 168.274H502.368V127.829L526.468 138.623V168.274Z"
          fill="#EBF4FF" />
    <path d="M604.182 100.544H600.741L597.801 106.367H596.197L592.809 99.6391H588.408L584.752 92.2847H561.135L553.383 103.867V109.591H543.846V121.04H539.67V168.275H604.182V100.544Z"
          fill="#EBF4FF" />
    <path d="M801.117 152.553C801.144 152.518 801.18 152.482 801.206 152.446C801.879 151.568 801.708 150.323 800.83 149.651C800.794 149.624 800.749 149.588 800.705 149.561C800.938 149.158 801.036 148.684 800.947 148.191C800.848 147.636 800.525 147.188 800.086 146.901C799.898 146.471 799.557 146.131 799.154 145.925C799.306 145.575 799.36 145.172 799.288 144.76C799.1 143.766 798.213 143.085 797.236 143.139C797.263 143.049 797.281 142.959 797.299 142.861C797.63 142.503 797.837 142.028 797.837 141.499C797.837 140.398 796.94 139.502 795.838 139.502C795.784 139.502 795.739 139.502 795.686 139.511C796.161 139.143 796.474 138.57 796.474 137.925C796.474 136.931 795.748 136.107 794.789 135.954C794.789 135.829 794.78 135.695 794.753 135.56C794.565 134.539 793.615 133.84 792.593 133.939C792.405 133.787 792.181 133.67 791.939 133.598C791.509 132.971 790.729 132.622 789.932 132.765C789.421 132.864 788.991 133.142 788.704 133.527C788.668 133.536 788.641 133.536 788.605 133.545C787.521 133.751 786.813 134.79 787.01 135.874C787.019 135.901 787.019 135.928 787.028 135.945C787.01 135.945 786.992 135.954 786.974 135.954C785.889 136.16 785.181 137.2 785.379 138.283C785.379 138.292 785.388 138.31 785.388 138.319C784.509 138.66 783.971 139.582 784.151 140.541C784.24 141.025 784.5 141.446 784.868 141.732C783.998 141.947 783.353 142.736 783.353 143.667C783.353 143.936 783.407 144.196 783.505 144.429C783.237 144.769 783.075 145.199 783.075 145.665C783.075 145.907 783.12 146.14 783.201 146.363C782.448 146.65 781.91 147.376 781.91 148.227C781.91 148.657 782.053 149.06 782.287 149.391C782.053 149.723 781.91 150.117 781.91 150.556C781.91 150.887 781.991 151.201 782.134 151.469C781.776 151.828 781.561 152.32 781.561 152.867C781.561 153.924 782.385 154.793 783.434 154.856L783.667 155.196C783.783 155.536 783.998 155.841 784.276 156.065L784.518 156.414C784.518 156.414 785.549 157.373 785.952 157.928C786.356 158.484 787.825 159.37 788.273 159.603C788.318 159.63 788.372 159.648 788.426 159.675C788.444 159.756 788.471 159.827 788.489 159.908C789.035 162.058 789.224 164.467 788.999 166.779H791.231C791.76 166.796 792.342 166.734 792.683 166.438C792.683 166.438 792.307 164.969 792.307 164.073C792.307 163.249 792.154 163.034 792.504 161.431C792.844 159.863 793.131 159.585 795.04 157.641C795.551 157.122 796.071 156.567 796.555 156.038C796.895 156.172 797.272 156.217 797.666 156.146C798.114 156.065 798.5 155.832 798.778 155.518C799.1 155.635 799.45 155.662 799.808 155.599C800.893 155.393 801.601 154.354 801.404 153.27C801.359 153.01 801.26 152.768 801.117 152.553ZM791.491 160.589C791.455 160.418 791.419 160.194 791.41 159.908C791.625 158.233 791.876 156.558 792.163 154.891C792.172 154.873 792.181 154.856 792.19 154.838C792.307 155.223 792.764 155.492 793.364 155.563C792.54 157.041 791.921 158.77 791.491 160.589ZM788.99 159.505C789.026 159.541 789.053 159.558 789.053 159.558C789.053 159.558 789.035 159.55 788.999 159.541L788.99 159.505ZM788.659 157.722C788.507 157.023 788.309 156.352 788.014 155.76C787.987 155.707 787.96 155.653 787.924 155.59C788.049 155.617 788.184 155.626 788.318 155.626C788.48 155.626 788.641 155.608 788.793 155.572C788.955 155.939 789.125 156.271 789.259 156.513C789.277 156.62 789.295 156.719 789.313 156.826C789.448 157.588 789.546 158.367 789.618 159.155C789.367 158.851 789.143 158.564 789.062 158.403C788.991 158.286 788.838 158.036 788.659 157.722ZM787.395 158.645C786.768 158.116 785.997 157.498 785.405 156.764C785.343 156.683 785.271 156.593 785.199 156.504C785.316 156.522 785.432 156.54 785.558 156.54C786.078 156.54 786.553 156.343 786.911 156.011C787.09 156.271 787.252 156.531 787.377 156.799C787.736 157.561 788.049 158.376 788.3 159.236C788.005 159.075 787.664 158.869 787.395 158.645ZM789.663 163.285L789.062 159.908C789.304 159.988 789.537 160.069 789.681 160.177C789.734 161.207 789.725 162.246 789.663 163.285ZM792.109 160.311C792.584 158.492 793.355 156.782 794.44 155.653C794.458 155.769 794.422 155.948 794.243 156.361C793.803 157.355 793.068 159.003 792.773 159.388C792.522 159.702 792.477 159.917 792.109 160.311ZM795.712 156.361C794.977 156.826 794.243 157.892 794.243 157.892L793.651 158.412C793.651 158.412 794.422 157.561 794.538 156.997C794.61 156.629 794.655 155.984 794.78 155.42C795.058 155.33 795.309 155.205 795.515 155.062C795.677 155.402 795.936 155.68 796.25 155.877C796.035 156.101 795.856 156.271 795.712 156.361Z"
          fill="#EBF4FF" />
    <path d="M613.234 151.488C613.27 151.452 613.306 151.407 613.333 151.362C614.077 150.386 613.889 148.979 612.912 148.236C612.867 148.2 612.822 148.173 612.777 148.137C613.037 147.69 613.145 147.152 613.046 146.606C612.93 145.988 612.571 145.477 612.087 145.154C611.872 144.671 611.505 144.286 611.048 144.062C611.218 143.667 611.281 143.22 611.191 142.763C610.985 141.652 609.99 140.89 608.897 140.944C608.923 140.846 608.95 140.738 608.968 140.64C609.336 140.246 609.569 139.708 609.569 139.117C609.569 137.881 608.574 136.886 607.337 136.886C607.283 136.886 607.23 136.886 607.167 136.895C607.705 136.483 608.045 135.847 608.045 135.122C608.045 134.011 607.23 133.088 606.163 132.918C606.163 132.775 606.154 132.631 606.127 132.479C605.912 131.332 604.854 130.553 603.716 130.669C603.501 130.499 603.259 130.374 602.99 130.293C602.506 129.586 601.637 129.2 600.741 129.362C600.167 129.469 599.692 129.783 599.369 130.213C599.334 130.222 599.298 130.222 599.262 130.231C598.052 130.455 597.254 131.619 597.478 132.837C597.487 132.864 597.487 132.891 597.496 132.918C597.478 132.918 597.46 132.927 597.434 132.927C596.224 133.151 595.426 134.315 595.65 135.534C595.65 135.543 595.659 135.561 595.659 135.569C594.682 135.955 594.082 136.985 594.279 138.06C594.377 138.606 594.673 139.063 595.076 139.386C594.099 139.627 593.382 140.505 593.382 141.553C593.382 141.858 593.445 142.145 593.553 142.404C593.257 142.781 593.078 143.264 593.078 143.784C593.078 144.062 593.131 144.321 593.221 144.563C592.379 144.886 591.778 145.692 591.778 146.65C591.778 147.134 591.931 147.582 592.199 147.949C591.939 148.317 591.778 148.764 591.778 149.248C591.778 149.615 591.868 149.965 592.029 150.269C591.635 150.673 591.384 151.228 591.384 151.837C591.384 153.019 592.307 153.987 593.481 154.059L593.741 154.435C593.875 154.82 594.108 155.151 594.422 155.411L594.7 155.805C594.7 155.805 595.856 156.88 596.304 157.498C596.761 158.125 598.401 159.111 598.894 159.38C598.948 159.406 599.002 159.433 599.065 159.46C599.092 159.55 599.109 159.63 599.136 159.72C599.746 162.13 599.961 164.817 599.71 167.406H602.211C602.802 167.424 603.456 167.352 603.833 167.021C603.833 167.021 603.412 165.372 603.412 164.369C603.412 163.447 603.241 163.205 603.636 161.413C604.021 159.657 604.335 159.344 606.477 157.176C607.05 156.594 607.633 155.976 608.171 155.375C608.547 155.528 608.977 155.581 609.407 155.501C609.909 155.411 610.34 155.151 610.653 154.802C611.012 154.928 611.406 154.963 611.8 154.892C613.01 154.668 613.808 153.503 613.584 152.285C613.503 151.998 613.387 151.721 613.234 151.488ZM602.461 160.472C602.417 160.284 602.381 160.025 602.372 159.711C602.614 157.83 602.892 155.958 603.214 154.103C603.223 154.085 603.232 154.068 603.25 154.041C603.376 154.471 603.887 154.775 604.568 154.856C603.636 156.504 602.945 158.448 602.461 160.472ZM599.665 159.263C599.71 159.299 599.737 159.326 599.737 159.326C599.737 159.326 599.71 159.317 599.674 159.299L599.665 159.263ZM599.289 157.274C599.118 156.495 598.894 155.743 598.572 155.08C598.545 155.017 598.509 154.954 598.473 154.892C598.617 154.919 598.76 154.936 598.912 154.936C599.092 154.936 599.271 154.91 599.441 154.874C599.629 155.286 599.809 155.662 599.961 155.922C599.979 156.038 600.006 156.155 600.024 156.271C600.176 157.122 600.293 158 600.364 158.878C600.077 158.538 599.827 158.215 599.746 158.036C599.665 157.902 599.495 157.624 599.289 157.274ZM597.882 158.305C597.183 157.713 596.313 157.024 595.659 156.2C595.587 156.11 595.507 156.011 595.426 155.904C595.56 155.931 595.695 155.94 595.829 155.94C596.412 155.94 596.941 155.716 597.344 155.349C597.541 155.635 597.729 155.931 597.873 156.226C598.276 157.077 598.626 157.991 598.903 158.95C598.554 158.779 598.177 158.555 597.882 158.305ZM600.418 163.491L599.746 159.711C600.024 159.801 600.284 159.899 600.436 160.007C600.49 161.171 600.49 162.336 600.418 163.491ZM603.161 160.159C603.698 158.126 604.55 156.209 605.769 154.954C605.787 155.089 605.751 155.286 605.545 155.743C605.052 156.853 604.227 158.699 603.896 159.129C603.618 159.487 603.573 159.72 603.161 160.159ZM607.185 155.743C606.36 156.262 605.536 157.454 605.536 157.454L604.872 158.036C604.872 158.036 605.733 157.077 605.858 156.45C605.939 156.047 605.984 155.313 606.127 154.686C606.441 154.587 606.719 154.444 606.943 154.283C607.131 154.659 607.418 154.972 607.767 155.196C607.552 155.456 607.337 155.644 607.185 155.743Z"
          fill="#EBF4FF" />
    <path d="M626.697 69.8633H622.673V154.516H626.697V69.8633Z"
          fill="#EBF4FF" />
    <path d="M633.553 99.6929H629.529V148.872H633.553V99.6929Z"
          fill="#EBF4FF" />
    <path d="M640.41 99.6929H636.386V148.872H640.41V99.6929Z"
          fill="#EBF4FF" />
    <path d="M619.841 76.9937H615.816V125.492H619.841V76.9937Z"
          fill="#EBF4FF" />
    <path d="M612.984 76.9937H608.96V125.492H612.984V76.9937Z"
          fill="#EBF4FF" />
    <path d="M540.038 159.478H519.415V164.244H540.038V159.478Z"
          fill="#EBF4FF" />
    <path d="M540.037 164.234V151.541H546.392L549.564 156.298L554.332 157.892V164.234H540.037Z"
          fill="#EBF4FF" />
    <path d="M527.339 167.728C525.412 167.728 523.853 166.16 523.853 164.243C523.853 162.326 525.421 160.758 527.339 160.758C529.266 160.758 530.825 162.326 530.825 164.243C530.825 166.16 529.266 167.728 527.339 167.728Z"
          fill="#EBF4FF" />
    <path d="M527.339 161.064C529.096 161.064 530.512 162.488 530.512 164.235C530.512 165.99 529.087 167.406 527.339 167.406C525.591 167.406 524.166 165.981 524.166 164.235C524.157 162.488 525.583 161.064 527.339 161.064ZM527.339 160.437C525.242 160.437 523.539 162.139 523.539 164.235C523.539 166.331 525.242 168.033 527.339 168.033C529.436 168.033 531.139 166.331 531.139 164.235C531.139 162.139 529.436 160.437 527.339 160.437Z"
          fill="#EBF4FF" />
    <path d="M547.98 167.728C546.053 167.728 544.493 166.16 544.493 164.243C544.493 162.326 546.062 160.758 547.98 160.758C549.907 160.758 551.466 162.326 551.466 164.243C551.466 166.16 549.907 167.728 547.98 167.728Z"
          fill="#EBF4FF" />
    <path d="M547.979 161.064C549.735 161.064 551.152 162.488 551.152 164.235C551.152 165.99 549.727 167.406 547.979 167.406C546.222 167.406 544.806 165.981 544.806 164.235C544.806 162.488 546.222 161.064 547.979 161.064ZM547.979 160.437C545.882 160.437 544.179 162.139 544.179 164.235C544.179 166.331 545.882 168.033 547.979 168.033C550.076 168.033 551.779 166.331 551.779 164.235C551.788 162.139 550.076 160.437 547.979 160.437Z"
          fill="#EBF4FF" />
    <path d="M540.056 145.189H519.415V159.477H540.038L540.056 145.189Z"
          fill="#EBF4FF" />
    <path d="M538.47 146.775H521.002V157.883H538.47V146.775Z"
          fill="#EBF4FF" />
    <path d="M530.529 146.775H528.942V157.883H530.529V146.775Z"
          fill="#EBF4FF" />
    <path d="M540.037 151.541H546.392L549.564 156.298H540.046L540.037 151.541Z"
          fill="#EBF4FF" />
    <path d="M548.616 156.297L545.972 152.329H541.688V156.297H548.616Z"
          fill="#EBF4FF" />
    <path d="M776.523 92.6968H744.895V168.275H776.523V92.6968Z"
          fill="#EBF4FF" />
    <path d="M740.431 95.3217L744.123 92.3656L751.49 90.5919L760.713 85.8711L769.926 90.583L777.294 92.3656L780.986 95.3217H740.431Z"
          fill="#EBF4FF" />
    <path d="M762.506 94.0488H758.481V157.793H762.506V94.0488Z"
          fill="#EBF4FF" />
    <path d="M769.684 99.4771H765.66V157.793H769.684V99.4771Z"
          fill="#EBF4FF" />
    <path d="M755.327 99.4771H751.303V157.793H755.327V99.4771Z"
          fill="#EBF4FF" />
    <path d="M786.196 106.124V107.558H805.448V106.124H786.196Z"
          fill="#EBF4FF" />
    <path d="M786.198 108.238V109.671H805.45V108.238H786.198Z"
          fill="#EBF4FF" />
    <path d="M786.199 110.35V111.783H805.451V110.35H786.199Z"
          fill="#EBF4FF" />
    <path d="M562.761 102.973V104.406H582.012V102.973H562.761Z"
          fill="#EBF4FF" />
    <path d="M562.762 105.085V106.519H582.013V105.085H562.762Z"
          fill="#EBF4FF" />
    <path d="M562.764 107.198V108.631H582.015V107.198H562.764Z"
          fill="#EBF4FF" />
    <path d="M567.921 110.228V111.661H587.172V110.228H567.921Z"
          fill="#EBF4FF" />
    <path d="M567.922 112.342V113.775H587.173V112.342H567.922Z"
          fill="#EBF4FF" />
    <path d="M567.923 114.453V115.887H587.174V114.453H567.923Z"
          fill="#EBF4FF" />
    <path d="M557.651 117.485V118.918H576.903V117.485H557.651Z"
          fill="#EBF4FF" />
    <path d="M557.652 119.597V121.03H576.904V119.597H557.652Z"
          fill="#EBF4FF" />
    <path d="M557.654 121.709V123.143H576.906V121.709H557.654Z"
          fill="#EBF4FF" />
    <path d="M564.479 124.741V126.174H583.731V124.741H564.479Z"
          fill="#EBF4FF" />
    <path d="M564.48 126.854V128.287H583.732V126.854H564.48Z"
          fill="#EBF4FF" />
    <path d="M564.482 128.966V130.399H583.734V128.966H564.482Z"
          fill="#EBF4FF" />
    <path d="M457.475 146.086C457.287 145.826 457.036 145.62 456.767 145.477C457.404 144.769 457.475 143.685 456.893 142.888C456.776 142.727 456.633 142.583 456.481 142.467C456.947 141.768 456.956 140.819 456.427 140.102C455.755 139.188 454.473 138.982 453.55 139.645C453.138 139.43 452.654 139.359 452.197 139.457C452.322 138.803 452.134 138.104 451.632 137.594C450.825 136.788 449.517 136.788 448.71 137.594C448.683 137.621 448.665 137.639 448.647 137.666C448.549 137.486 448.432 137.316 448.271 137.155C447.464 136.349 446.156 136.349 445.349 137.155C445.295 137.209 445.251 137.262 445.197 137.325C444.48 137.092 443.664 137.253 443.091 137.827C443.037 137.881 442.992 137.934 442.947 137.988C442.571 138.069 442.203 138.257 441.908 138.552C441.226 139.233 441.119 140.254 441.585 141.052C441.262 141.661 441.262 142.404 441.594 143.013C441.361 143.112 441.146 143.255 440.958 143.443C440.151 144.25 440.151 145.557 440.958 146.364C441.406 146.812 441.997 147.009 442.58 146.964C442.58 147 442.58 147.027 442.589 147.062C441.728 147.752 441.549 148.997 442.212 149.893C442.535 150.332 443.001 150.61 443.494 150.699C443.431 151.201 443.557 151.721 443.879 152.159C444.085 152.437 444.336 152.643 444.623 152.787C445.26 153.557 446.03 154.327 446.452 155.116C447.267 156.656 447.841 158.448 448.11 160.329C448.119 160.401 448.128 160.472 448.137 160.544L447.814 167.415H449.795L449.472 160.661C449.678 159.801 450.001 158.985 450.377 158.269C451.264 156.576 452.447 155.241 453.424 153.655C453.926 152.84 454.374 151.918 454.688 150.932C454.939 150.87 455.19 150.753 455.414 150.592C455.844 150.278 456.122 149.821 456.221 149.338C456.508 149.284 456.776 149.159 457.027 148.979C457.95 148.299 458.148 147.009 457.475 146.086ZM446.245 152.876C446.326 152.849 446.416 152.813 446.496 152.769C446.891 152.984 447.339 153.055 447.787 152.993C447.814 153.799 447.841 154.605 447.859 155.411C447.455 154.524 446.891 153.62 446.245 152.876ZM451.085 155.581C450.574 156.388 449.732 157.23 449.131 156.558C448.845 156.235 448.755 155.662 448.755 155.142C448.764 154.22 448.988 153.333 449.158 152.437C449.158 152.437 449.158 152.437 449.158 152.428C449.866 153.028 450.924 153.082 451.704 152.509C451.722 152.491 451.748 152.473 451.766 152.455C452.098 152.589 452.465 152.643 452.824 152.598C452.268 153.629 451.686 154.614 451.085 155.581Z"
          fill="#EBF4FF" />
    <path d="M425.044 94.9125V96.1846H428.656V94.9125H425.044Z"
          fill="#EBF4FF" />
    <path d="M425.042 96.7856V98.0576H428.654V96.7856H425.042Z"
          fill="#EBF4FF" />
    <path d="M425.041 98.6586V99.9307H428.653V98.6586H425.041Z"
          fill="#EBF4FF" />
    <path d="M431.538 94.9082V96.1802H435.15V94.9082H431.538Z"
          fill="#EBF4FF" />
    <path d="M431.537 96.7817V98.0537H435.149V96.7817H431.537Z"
          fill="#EBF4FF" />
    <path d="M431.535 98.6557V99.9277H435.147V98.6557H431.535Z"
          fill="#EBF4FF" />
    <path d="M438.033 94.9038V96.1758H441.645V94.9038H438.033Z"
          fill="#EBF4FF" />
    <path d="M438.03 96.7783V98.0503H441.642V96.7783H438.03Z"
          fill="#EBF4FF" />
    <path d="M438.029 98.6513V99.9233H441.641V98.6513H438.029Z"
          fill="#EBF4FF" />
    <path d="M444.526 94.9091V96.1812H448.138V94.9091H444.526Z"
          fill="#EBF4FF" />
    <path d="M444.525 96.7836V98.0557H448.137V96.7836H444.525Z"
          fill="#EBF4FF" />
    <path d="M444.523 98.6582V99.9302H448.135V98.6582H444.523Z"
          fill="#EBF4FF" />
    <path d="M425.039 102.396V103.668H428.651V102.396H425.039Z"
          fill="#EBF4FF" />
    <path d="M425.037 104.27V105.542H428.649V104.27H425.037Z"
          fill="#EBF4FF" />
    <path d="M425.036 106.144V107.416H428.648V106.144H425.036Z"
          fill="#EBF4FF" />
    <path d="M431.533 102.393V103.665H435.145V102.393H431.533Z"
          fill="#EBF4FF" />
    <path d="M431.532 104.266V105.538H435.144V104.266H431.532Z"
          fill="#EBF4FF" />
    <path d="M431.529 106.14V107.412H435.141V106.14H431.529Z"
          fill="#EBF4FF" />
    <path d="M438.026 102.389V103.661H441.638V102.389H438.026Z"
          fill="#EBF4FF" />
    <path d="M438.025 104.263V105.535H441.637V104.263H438.025Z"
          fill="#EBF4FF" />
    <path d="M438.024 106.136V107.408H441.636V106.136H438.024Z"
          fill="#EBF4FF" />
    <path d="M444.521 102.394V103.666H448.133V102.394H444.521Z"
          fill="#EBF4FF" />
    <path d="M444.52 104.269V105.541H448.131V104.269H444.52Z"
          fill="#EBF4FF" />
    <path d="M444.518 106.142V107.414H448.129V106.142H444.518Z"
          fill="#EBF4FF" />
  </svg>
