<?xml version="1.0" standalone="no"?>
<!DOCTYPE svg PUBLIC "-//W3C//DTD SVG 1.1//EN" "http://www.w3.org/Graphics/SVG/1.1/DTD/svg11.dtd" >
<svg xmlns="http://www.w3.org/2000/svg">
<metadata>Generated by IcoMoon</metadata>
<defs>
<font id="cn-icons" horiz-adv-x="1024">
<font-face units-per-em="1024" ascent="960" descent="-64" />
<missing-glyph horiz-adv-x="1024" />
<glyph unicode="&#x20;" horiz-adv-x="512" d="" />
<glyph unicode="&#xe900;" glyph-name="arrow" d="M1010.351 624.529l-465.421-465.421c-4.322-4.326-9.459-7.761-15.108-10.103s-11.703-3.546-17.822-3.546c-6.118 0-12.173 1.203-17.822 3.546s-10.786 5.777-15.108 10.103l-465.42 465.421c-6.516 6.509-10.955 14.805-12.754 23.838s-0.877 18.397 2.649 26.906c3.526 8.509 9.497 15.78 17.157 20.894s16.666 7.839 25.877 7.832h930.842c9.212 0.007 18.214-2.718 25.877-7.832 7.659-5.114 13.632-12.385 17.156-20.894s4.45-17.873 2.65-26.906c-1.801-9.033-6.238-17.329-12.753-23.838z" />
<glyph unicode="&#xe901;" glyph-name="close" d="M28.626 931.374c18.335 18.329 43.199 28.626 69.124 28.626s50.789-10.297 69.124-28.626l345.715-345.717 345.719 345.717c18.441 17.81 43.136 27.664 68.77 27.442s50.159-10.505 68.284-28.633c18.129-18.128 28.412-42.649 28.634-68.285s-9.63-50.332-27.443-68.772l-345.715-345.715 345.715-345.719c17.813-18.441 27.665-43.136 27.443-68.77s-10.505-50.159-28.634-68.284c-18.125-18.129-42.65-28.412-68.284-28.634s-50.33 9.63-68.77 27.443l-345.719 345.715-345.715-345.715c-18.44-17.813-43.137-27.665-68.772-27.443s-50.157 10.505-68.285 28.634c-18.127 18.125-28.41 42.65-28.633 68.284s9.632 50.33 27.442 68.77l345.717 345.719-345.717 345.715c-18.329 18.335-28.626 43.199-28.626 69.124s10.297 50.789 28.626 69.124z" />
<glyph unicode="&#xe902;" glyph-name="container" d="M666.24 944.631l301.504-177.536c34.816-20.224 56.192-57.408 56.256-97.664v-320.639c0-19.823-5.201-39.3-15.083-56.482-9.886-17.182-24.102-31.471-41.237-41.438l-496.32-289.408c-17.25-9.997-36.83-15.262-56.768-15.262-19.936 0-39.519 5.265-56.768 15.262l-301.952 176.128c-17.024 9.941-31.143 24.175-40.947 41.276-9.804 17.105-14.95 36.48-14.925 56.196v322.239c0 19.456 4.992 38.272 14.080 54.72l0.256 0.32 0.64 1.216c9.6 16.768 23.616 31.104 40.96 41.152l497.088 289.984c17.143 9.997 36.634 15.264 56.482 15.264 19.844 0 39.334-5.267 56.478-15.264l0.128-0.064h0.128zM601.408 861.815l-458.88-267.648 263.424-152.831c2.619-1.506 5.587-2.295 8.608-2.295s5.989 0.789 8.608 2.295l457.728 265.471-263.36 155.008c-2.453 1.416-5.231 2.161-8.064 2.161s-5.611-0.745-8.064-2.161zM104.256 220.535l262.4-153.152v286.272c-3.009 1.408-5.955 2.944-8.832 4.608l-261.824 151.872v-275.072c0-6.080 3.2-11.584 8.256-14.528zM654.656 179.447l97.344 56.768v284.8l-97.344-56.448v-285.12zM471.36 358.263h0.064c-2.816-1.664-5.76-3.136-8.704-4.544v-286.208l96 56v285.44l-87.36-50.688zM848 292.215l71.36 41.6h0.128c2.598 1.506 4.753 3.674 6.251 6.281 1.493 2.607 2.274 5.564 2.261 8.567v274.431l-80-46.4v-284.479z" />
<glyph unicode="&#xe903;" glyph-name="copy" d="M964.267 604.672c-0.533 4.704-1.562 9.337-3.072 13.824v4.608c-2.462 5.264-5.747 10.103-9.728 14.336l-307.2 307.2c-4.233 3.983-9.071 7.266-14.336 9.728-1.527 0.217-3.081 0.217-4.608 0-5.201 2.983-10.944 4.898-16.896 5.632h-207.36c-40.737 0-79.806-16.183-108.611-44.989s-44.989-67.874-44.989-108.611v-51.2h-51.2c-40.737 0-79.806-16.183-108.611-44.989s-44.989-67.874-44.989-108.611v-512c0-40.738 16.183-79.808 44.989-108.612s67.874-44.988 108.611-44.988h409.6c40.738 0 79.808 16.183 108.612 44.988s44.988 67.874 44.988 108.612v51.2h51.2c40.738 0 79.808 16.183 108.612 44.988s44.988 67.874 44.988 108.612v310.272zM657.067 785.408l132.608-132.608h-81.408c-13.581 0-26.603 5.394-36.203 14.996-9.604 9.602-14.997 22.625-14.997 36.204v81.408zM657.067 89.6c0-13.581-5.393-26.603-14.997-36.203-9.6-9.604-22.622-14.997-36.203-14.997h-409.6c-13.579 0-26.602 5.393-36.204 14.997-9.602 9.6-14.996 22.622-14.996 36.203v512c0 13.579 5.394 26.602 14.996 36.204s22.625 14.996 36.204 14.996h51.2v-358.4c0-40.738 16.183-79.808 44.989-108.612s67.874-44.988 108.611-44.988h256v-51.2zM861.867 294.4c0-13.581-5.393-26.603-14.997-36.203-9.6-9.604-22.622-14.997-36.203-14.997h-409.6c-13.579 0-26.602 5.393-36.204 14.997-9.602 9.6-14.996 22.622-14.996 36.203v512c0 13.579 5.394 26.602 14.996 36.204s22.625 14.996 36.204 14.996h153.6v-153.6c0-40.737 16.183-79.806 44.988-108.612s67.874-44.988 108.612-44.988h153.6v-256z" />
<glyph unicode="&#xe904;" glyph-name="done" d="M519.138 959.952c-287.924 3.889-522.979-231.166-519.091-519.091 3.84-276.134 228.68-500.975 504.814-504.815 287.974-3.938 522.978 231.117 519.040 519.044-3.789 276.181-228.629 501.022-504.764 504.861zM477.811 486.225l126.882 145.217c6.874 7.866 16.589 12.679 27.012 13.381s20.698-2.766 28.561-9.64c7.868-6.874 12.681-16.591 13.385-27.013 0.7-10.423-2.769-20.697-9.643-28.563l-126.878-145.217c-3.405-3.895-7.543-7.083-12.177-9.378s-9.677-3.657-14.839-4.002c-5.158-0.346-10.338 0.324-15.236 1.98-4.902 1.651-9.429 4.258-13.325 7.659-3.895 3.405-7.083 7.543-9.378 12.177s-3.657 9.677-4.002 14.835c-0.35 5.163 0.324 10.342 1.98 15.241 1.651 4.902 4.254 9.429 7.659 13.325zM382.165 262.613c-7.384-7.377-17.397-11.524-27.837-11.524s-20.453 4.147-27.837 11.524l-118.020 118.144c-3.656 3.661-6.555 8.004-8.532 12.783s-2.993 9.899-2.991 15.074c0.002 5.171 1.023 10.291 3.005 15.070s4.884 9.118 8.544 12.774c3.659 3.652 8.002 6.554 12.781 8.529 4.779 1.98 9.901 2.995 15.073 2.991 5.172 0 10.293-1.020 15.071-3.004 4.777-1.98 9.118-4.885 12.774-8.542l118.143-118.144c7.357-7.407 11.472-17.434 11.439-27.874-0.032-10.436-4.209-20.437-11.612-27.802zM817.323 579.607l-275.371-315.048c-3.546-4.066-7.893-7.356-12.766-9.673s-10.172-3.605-15.561-3.789h-1.331c-5.175-0.004-10.3 1.015-15.078 2.999-4.783 1.98-9.126 4.881-12.783 8.542l-117.996 118.144c-7.383 7.39-11.528 17.408-11.523 27.853 0.005 10.449 4.159 20.463 11.548 27.844 7.389 7.386 17.409 11.529 27.855 11.524s20.462-4.156 27.844-11.546l73.348-73.421c1.907-1.907 4.186-3.405 6.694-4.395s5.193-1.455 7.889-1.365c2.692 0.090 5.342 0.734 7.778 1.89s4.612 2.799 6.387 4.83l233.822 267.444c6.874 7.866 16.593 12.679 27.012 13.381 10.423 0.701 20.698-2.766 28.565-9.64 7.863-6.874 12.681-16.591 13.38-27.013s-2.765-20.697-9.638-28.563h-0.077z" />
<glyph unicode="&#xe905;" glyph-name="minus" d="M512 960c282.765 0 512-229.236 512-512s-229.235-512-512-512c-282.764 0-512 229.235-512 512s229.236 512 512 512zM325.818 494.545c-12.344 0-24.183-4.902-32.913-13.632s-13.633-20.57-13.633-32.913c0-12.343 4.904-24.183 13.633-32.913s20.568-13.632 32.913-13.632h372.362c12.348 0 24.183 4.902 32.913 13.632s13.632 20.57 13.632 32.913c0 12.343-4.902 24.183-13.632 32.913s-20.565 13.632-32.913 13.632h-372.362z" />
<glyph unicode="&#xe906;" glyph-name="open" d="M1024 187.503c0-61.939-24.606-121.344-68.403-165.141s-103.202-68.403-165.141-68.403h-556.912c-61.94 0-121.342 24.606-165.14 68.403s-68.403 103.202-68.403 165.141v143.718c0 14.293 5.678 28.002 15.785 38.11s23.816 15.787 38.11 15.787c14.294 0 28.002-5.679 38.109-15.787s15.785-23.817 15.785-38.11v-143.718c0-33.353 13.249-65.34 36.832-88.922 23.584-23.586 55.569-36.834 88.922-36.834h556.912c33.353 0 65.34 13.248 88.922 36.834 23.586 23.582 36.834 55.569 36.834 88.922v538.947c0 69.417-56.337 125.754-125.756 125.754h-287.437c-14.293 0-28.002 5.678-38.11 15.785s-15.787 23.816-15.787 38.109c0 14.294 5.679 28.002 15.787 38.109s23.817 15.785 38.11 15.785h287.437c61.939 0 121.344-24.605 165.141-68.403s68.403-103.201 68.403-165.14v-538.947zM664.7 367.151c0-14.293-5.675-28.002-15.782-38.11s-23.817-15.782-38.11-15.782h-323.369c-14.294 0-28.002 5.675-38.109 15.782s-15.785 23.817-15.785 38.11c0 14.293 5.679 28.002 15.785 38.11s23.816 15.787 38.109 15.787h193.304l-375.109 375.106c-5.295 4.934-9.542 10.884-12.488 17.495s-4.53 13.748-4.657 20.984c-0.128 7.237 1.204 14.425 3.914 21.135s6.745 12.807 11.863 17.925c5.117 5.118 11.214 9.152 17.924 11.863s13.899 4.042 21.136 3.914c7.236-0.128 14.373-1.712 20.984-4.657s12.561-7.193 17.495-12.488l375.106-375.109v193.304c0 14.294 5.679 28.002 15.787 38.109s23.817 15.785 38.11 15.785c14.293 0 28.002-5.678 38.11-15.785s15.782-23.815 15.782-38.109v-323.369z" />
<glyph unicode="&#xe907;" glyph-name="phone" d="M1023.394 186.475c-9.126-69.38-43.2-133.060-95.851-179.157-52.651-46.093-120.282-71.441-190.255-71.317-406.534 0-737.289 330.756-737.289 737.288-0.125 69.976 25.226 137.605 71.319 190.256s109.776 86.723 179.154 95.852c17.544 2.142 35.311-1.447 50.647-10.232s27.421-22.294 34.448-38.511l108.136-241.41v-0.614c5.38-12.414 7.603-25.967 6.468-39.449s-5.589-26.473-12.971-37.813c-0.922-1.382-1.894-2.662-2.918-3.942l-106.6-126.364c38.349-77.926 119.86-158.72 198.811-197.171l124.621 106.035c1.225 1.028 2.509 1.988 3.84 2.867 11.332 7.556 24.367 12.169 37.931 13.423 13.559 1.25 27.221-0.9 39.744-6.255l0.666-0.307 241.203-108.083c16.247-7.002 29.79-19.076 38.601-34.415 8.815-15.339 12.429-33.118 10.295-50.679z" />
<glyph unicode="&#xe908;" glyph-name="plus" d="M1024 448c0-135.791-53.943-266.018-149.961-362.039-96.021-96.017-226.249-149.961-362.039-149.961s-266.020 53.943-362.039 149.961c-96.019 96.021-149.961 226.249-149.961 362.039s53.943 266.020 149.961 362.039c96.019 96.019 226.248 149.961 362.039 149.961s266.018-53.943 362.039-149.961c96.017-96.019 149.961-226.248 149.961-362.039zM544 672c0 8.487-3.371 16.626-9.374 22.627-5.999 6.001-14.14 9.373-22.626 9.373s-16.627-3.372-22.626-9.373c-6.003-6.001-9.374-14.141-9.374-22.627v-192h-192c-8.487 0-16.626-3.371-22.627-9.374-6.001-5.999-9.373-14.14-9.373-22.626s3.372-16.627 9.373-22.626c6.001-6.003 14.141-9.374 22.627-9.374h192v-192c0-8.486 3.371-16.627 9.374-22.626 5.999-6.003 14.14-9.374 22.626-9.374s16.627 3.371 22.626 9.374c6.003 5.999 9.374 14.14 9.374 22.626v192h192c8.486 0 16.627 3.371 22.626 9.374 6.003 5.999 9.374 14.14 9.374 22.626s-3.371 16.627-9.374 22.626c-5.999 6.003-14.14 9.374-22.626 9.374h-192v192z" />
<glyph unicode="&#xe909;" glyph-name="time" d="M512 960c282.778 0 512-229.222 512-512s-229.222-512-512-512c-282.778 0-512 229.222-512 512s229.222 512 512 512zM512 755.2c-13.581 0-26.603-5.394-36.203-14.996-9.604-9.602-14.997-22.625-14.997-36.204v-256c0.004-13.577 5.397-26.598 15.002-36.198l153.6-153.6c9.655-9.327 22.588-14.485 36.015-14.37 13.423 0.115 26.266 5.5 35.759 14.993s14.878 22.336 14.993 35.759c0.115 13.427-5.043 26.359-14.37 36.015l-138.598 138.598v234.803c0 13.579-5.393 26.602-14.997 36.204-9.6 9.602-22.622 14.996-36.203 14.996z" />
<glyph unicode="&#xe90a;" glyph-name="check" d="M943.171 940.17c-18.049 10.044-37.901 16.431-58.42 18.796s-41.304 0.663-61.166-5.011c-19.86-5.674-38.408-15.206-54.582-28.054s-29.658-28.757-39.677-46.819l-291.917-525.339-167.067 167.068c-14.505 15.018-31.855 26.996-51.040 35.237-19.183 8.241-39.817 12.579-60.695 12.76s-41.583-3.798-60.908-11.703c-19.324-7.907-36.88-19.583-51.644-34.346s-26.439-32.319-34.345-51.644c-7.906-19.324-11.885-40.029-11.703-60.908s4.519-41.51 12.76-60.695c8.241-19.183 20.22-36.534 35.238-51.039l314.48-314.481c29.719-29.797 69.815-46.149 111.169-46.149l21.778 1.572c24.101 3.372 47.090 12.291 67.158 26.056s36.668 32.001 48.492 53.272l393.101 707.58c10.035 18.047 16.419 37.893 18.784 58.408s0.667 41.293-4.998 61.151c-5.665 19.858-15.186 38.405-28.019 54.583s-28.728 29.67-46.776 39.704z" />
<glyph unicode="&#xe90b;" glyph-name="calendar-solid" d="M819.2 823.466h102.4c27.156 0 53.202-10.788 72.407-29.992s29.993-45.25 29.993-72.408v-682.666c0-27.156-10.788-53.202-29.993-72.407s-45.251-29.993-72.407-29.993h-819.2c-27.158 0-53.204 10.788-72.408 29.993s-29.992 45.251-29.992 72.407v682.666c0 27.159 10.789 53.204 29.992 72.408s45.25 29.992 72.408 29.992h102.4v136.534h68.266v-136.534h477.869v136.534h68.265v-136.534z" />
<glyph unicode="&#xe90c;" glyph-name="warning-truck" d="M93.091 832c-51.2 0-93.091-41.891-93.091-93.091v-512h93.091c0-79.126 60.509-139.637 139.637-139.637 79.126 0 139.635 60.51 139.635 139.637h279.274c0-79.126 60.509-139.637 139.635-139.637 79.128 0 139.637 60.51 139.637 139.637h93.091v232.728l-139.637 186.181h-139.635v186.182h-651.637zM325.818 738.909h93.091v-186.181h-93.091v186.181zM744.728 576h116.363l93.091-116.363h-209.454v116.363zM325.818 459.637h93.091v-93.091h-93.091v93.091zM232.728 296.728c37.235 0 69.818-32.582 69.818-69.819s-32.582-69.818-69.818-69.818c-37.237 0-69.819 32.581-69.819 69.818s32.582 69.819 69.819 69.819zM791.272 296.728c37.237 0 69.819-32.582 69.819-69.819s-32.582-69.818-69.819-69.818c-37.235 0-69.818 32.581-69.818 69.818s32.582 69.819 69.818 69.819z" />
<glyph unicode="&#xe91a;" glyph-name="delete-button" d="M652.8 836.267c-8.533 68.267-68.267 123.733-140.8 123.733s-132.267-55.467-140.8-123.733h-166.4c-64 0-119.467-51.2-119.467-115.2v-4.267c0-51.2 29.867-89.6 76.8-106.667v-554.667c0-64 55.467-115.2 119.467-115.2h460.8c68.267 0 119.467 51.2 119.467 115.2v554.667c42.667 17.067 76.8 59.733 76.8 106.667v4.267c0 64-55.467 115.2-119.467 115.2h-166.4zM597.333 836.267h-170.667c8.533 38.4 42.667 68.267 85.333 68.267s76.8-29.867 85.333-68.267zM806.4 51.2c0-34.133-29.867-59.733-64-59.733h-460.8c-34.133 0-64 25.6-64 59.733v546.133h584.533l4.267-546.133zM819.2 652.8h-614.4c-34.133 0-64 25.6-64 59.733v8.533c0 34.133 29.867 59.733 64 59.733h610.133c34.133 0 64-25.6 64-59.733v-4.267c4.267-38.4-25.6-64-59.733-64v0zM358.4 64c17.067 0 29.867 12.8 29.867 29.867v311.467c0 17.067-12.8 29.867-29.867 29.867s-29.867-12.8-29.867-29.867v-311.467c0-17.067 12.8-29.867 29.867-29.867zM512 64c17.067 0 29.867 12.8 29.867 29.867v311.467c0 17.067-12.8 29.867-29.867 29.867s-29.867-12.8-29.867-29.867v-311.467c0-17.067 12.8-29.867 29.867-29.867zM665.6 64c17.067 0 29.867 12.8 29.867 29.867v311.467c0 17.067-12.8 29.867-29.867 29.867s-29.867-12.8-29.867-29.867v-311.467c0-17.067 12.8-29.867 29.867-29.867z" />
<glyph unicode="&#xe927;" glyph-name="forbidden" d="M512 960c-281.6 0-512-230.4-512-512s230.4-512 512-512 512 230.4 512 512-230.4 512-512 512zM793.6 115.2c-81.067-68.267-179.2-102.4-281.6-102.4-243.2-4.267-439.467 192-439.467 435.2 0 102.4 38.4 204.8 102.4 281.6l618.667-614.4zM230.4 780.8c76.8 68.267 179.2 106.667 281.6 106.667 243.2 0 439.467-196.267 439.467-439.467 0-102.4-38.4-204.8-102.4-281.6l-618.667 614.4z" />
<glyph unicode="&#xe92e;" glyph-name="info" d="M512 960c-281.6 0-512-230.4-512-512s230.4-512 512-512c281.6 0 512 230.4 512 512s-230.4 512-512 512zM512 0c-247.467 0-448 200.533-448 448s200.533 448 448 448 448-200.533 448-448-200.533-448-448-448zM520.533 550.4h-8.533c-25.6 0-46.933-21.333-46.933-46.933v-256c0-25.6 21.333-46.933 46.933-46.933h8.533c25.6 0 46.933 21.333 46.933 46.933v256c0 25.6-21.333 46.933-46.933 46.933zM520.533 695.467h-8.533c-25.6 0-46.933-21.333-46.933-46.933v-8.533c0-25.6 21.333-46.933 46.933-46.933h8.533c25.6 0 46.933 21.333 46.933 46.933v8.533c0 25.6-21.333 46.933-46.933 46.933z" />
<glyph unicode="&#xe946;" glyph-name="question" d="M512 960c-281.6 0-512-230.4-512-512s230.4-512 512-512c281.6 0 512 230.4 512 512s-230.4 512-512 512zM512 0c-247.467 0-448 200.533-448 448s200.533 448 448 448 448-200.533 448-448-200.533-448-448-448zM512 746.667c-106.667 0-192-85.333-192-192v0c0 0 0 0 0 0 0-25.6 21.333-46.933 46.933-46.933s46.933 21.333 46.933 46.933c0 0 0 0 0 0v0c0 51.2 42.667 98.133 98.133 98.133s98.133-42.667 98.133-98.133c0-93.867-136.533-85.333-145.067-230.4 0 0 0 0 0 0s0 0 0 0c0-4.267 0-8.533 0-8.533 4.267-21.333 25.6-38.4 46.933-38.4s42.667 17.067 46.933 38.4c4.267 12.8 8.533 34.133 21.333 51.2 8.533 17.067 17.067 21.333 42.667 46.933 34.133 29.867 46.933 46.933 59.733 64 0 0 21.333 34.133 25.6 81.067 0 81.067-89.6 187.733-196.267 187.733zM512 243.2c-25.6 0-46.933-21.333-46.933-46.933s21.333-46.933 46.933-46.933 46.933 21.333 46.933 46.933-21.333 46.933-46.933 46.933z" />
<glyph unicode="&#xe956;" glyph-name="sweet-failed" d="M512 896c247.467 0 448-200.533 448-448s-200.533-448-448-448-448 200.533-448 448 200.533 448 448 448zM512 960c-281.6 0-512-230.4-512-512s230.4-512 512-512c281.6 0 512 230.4 512 512s-230.4 512-512 512v0zM768 243.2l-204.8 204.8 204.8 204.8c0 0 0 0 0 0v0 0c4.267 8.533 8.533 17.067 8.533 25.6 0 21.333-17.067 38.4-38.4 38.4-12.8 0-21.333-4.267-29.867-17.067l-196.267-200.533-196.267 200.533c-8.533 8.533-21.333 17.067-34.133 17.067-21.333 0-38.4-17.067-38.4-38.4 4.267-8.533 8.533-17.067 12.8-25.6v0l204.8-204.8-204.8-204.8c-4.267-8.533-8.533-17.067-8.533-25.6 0-21.333 17.067-38.4 38.4-38.4 12.8 0 25.6 8.533 29.867 17.067l196.267 196.267 196.267-196.267c8.533-12.8 17.067-17.067 29.867-17.067 21.333 0 38.4 17.067 38.4 38.4 0 8.533-4.267 17.067-8.533 25.6v0z" />
<glyph unicode="&#xe957;" glyph-name="sweet-success" d="M512 960c-281.6 0-512-230.4-512-512s230.4-512 512-512 512 230.4 512 512c0 281.6-230.4 512-512 512zM512 0c-247.467 0-448 200.533-448 448s200.533 448 448 448 448-200.533 448-448-200.533-448-448-448zM780.8 669.867c-12.8 0-21.333-4.267-25.6-12.8l-341.333-341.333-128 132.267c-4.267 8.533-17.067 17.067-29.867 17.067-17.067 0-34.133-17.067-34.133-34.133 0-12.8 4.267-21.333 17.067-25.6l174.933-174.933 384 384c8.533 4.267 17.067 17.067 17.067 29.867s-12.8 25.6-34.133 25.6z" />
<glyph unicode="&#xe963;" glyph-name="warning" d="M512-64c281.6 0 512 230.4 512 512s-230.4 512-512 512-512-230.4-512-512 230.4-512 512-512zM512 896c247.467 0 448-200.533 448-448s-200.533-448-448-448-448 200.533-448 448 200.533 448 448 448zM503.467 345.6h8.533c25.6 0 46.933 21.333 46.933 46.933v256c0 25.6-21.333 46.933-46.933 46.933h-8.533c-25.6 0-46.933-21.333-46.933-46.933v-256c0-25.6 21.333-46.933 46.933-46.933zM503.467 200.533h8.533c25.6 0 46.933 21.333 46.933 46.933v8.533c0 25.6-21.333 46.933-46.933 46.933h-8.533c-25.6 0-46.933-21.333-46.933-46.933v-8.533c0-25.6 21.333-46.933 46.933-46.933z" />
</font>
</defs>
</svg>
